<svg width="89" height="24" viewBox="0 0 89 24" fill="none" xmlns="http://www.w3.org/2000/svg">
<path d="M22.9162 0V0.725795H23.642V0H22.9162ZM22.9162 1.45159V2.17739H23.642V1.45159H22.9162ZM20.7388 2.17739V2.90318H21.4646V2.17739H20.7388Z" fill="#9D9D9D"/>
<path d="M11.2429 2.72021C5.47981 2.72021 0.80957 7.39046 0.80957 13.1535C0.80957 18.9166 5.47981 23.5868 11.2429 23.5868C17.0059 23.5868 21.6762 18.9166 21.6762 13.1535C21.6762 7.39046 17.0059 2.72021 11.2429 2.72021ZM11.2429 6.04678C15.1641 6.04678 18.3496 9.23226 18.3496 13.1535C18.3496 17.0748 15.1641 20.2603 11.2429 20.2603C7.32162 20.2603 4.16637 17.0748 4.16637 13.1535C4.16637 9.23226 7.32162 6.04678 11.2429 6.04678Z" fill="#9D9D9D"/>
<path d="M27.7307 18.6745C26.2307 18.6745 24.9727 18.302 23.9565 17.5568L24.9291 15.9601C25.742 16.531 26.6613 16.8165 27.6871 16.8165C28.1903 16.8165 28.5871 16.7197 28.8774 16.5262C29.1677 16.323 29.3129 16.0423 29.3129 15.6843C29.3129 15.5875 29.3032 15.5004 29.2839 15.423C29.2645 15.3456 29.2306 15.273 29.1823 15.2052C29.1339 15.1278 29.0855 15.0649 29.0371 15.0165C28.9887 14.9585 28.9113 14.9004 28.8049 14.8423C28.7081 14.7843 28.621 14.7359 28.5436 14.6972C28.4758 14.6585 28.3645 14.6101 28.2097 14.552C28.0549 14.494 27.9242 14.4504 27.8178 14.4214C27.721 14.3827 27.571 14.3294 27.3678 14.2617C27.1646 14.194 26.9952 14.1359 26.8597 14.0875C26.5017 13.9617 26.1968 13.8311 25.9452 13.6956C25.6936 13.5504 25.4372 13.3666 25.1759 13.144C24.9146 12.9117 24.7162 12.6214 24.5807 12.273C24.4452 11.915 24.3775 11.5085 24.3775 11.0537C24.3775 10.1344 24.6969 9.42308 25.3356 8.91986C25.9743 8.40697 26.8162 8.15052 27.8613 8.15051C29.1194 8.15052 30.1403 8.38278 30.9242 8.84728L30.1839 10.5166C29.4484 10.1682 28.6984 9.99404 27.9339 9.99403C26.9275 9.99404 26.4242 10.3231 26.4242 10.9811C26.4242 11.136 26.4533 11.2714 26.5113 11.3876C26.5694 11.5037 26.6323 11.6005 26.7 11.6779C26.7678 11.7553 26.8888 11.8327 27.0629 11.9101C27.2468 11.9876 27.3968 12.0456 27.5129 12.0843C27.6387 12.123 27.842 12.1859 28.1226 12.273C28.2484 12.3117 28.3452 12.3408 28.4129 12.3601C28.7516 12.4666 29.0419 12.5682 29.2839 12.665C29.5258 12.7617 29.7919 12.9021 30.0823 13.0859C30.3726 13.2601 30.6097 13.4585 30.7935 13.6811C30.9774 13.9037 31.1322 14.1843 31.258 14.523C31.3838 14.8617 31.4467 15.2391 31.4468 15.6552C31.4467 16.5649 31.1226 17.2955 30.4742 17.8471C29.8355 18.3987 28.921 18.6745 27.7307 18.6745Z" fill="#9D9D9D"/>
<path d="M35.0299 18.8787L32.2864 11.0256H34.5654L35.9734 16.5126L37.1637 11.0256H39.2976L37.0476 18.632C36.525 20.3932 35.4363 21.2739 33.7815 21.2739C33.3944 21.2739 32.9831 21.2303 32.5477 21.1432L32.7799 19.6045C33.167 19.6432 33.4138 19.6626 33.5202 19.6626C33.917 19.6626 34.2267 19.5997 34.4492 19.4739C34.6718 19.3578 34.8654 19.1594 35.0299 18.8787Z" fill="#9D9D9D"/>
<path d="M46.4944 12.0148C47.2202 11.2406 47.9944 10.8535 48.8169 10.8535C49.5814 10.8535 50.1185 11.1148 50.4282 11.6374C50.7476 12.16 50.9072 12.8132 50.9072 13.597V18.5324H48.7008V13.568C48.7008 12.968 48.4686 12.668 48.0041 12.668C47.6363 12.668 47.225 12.8712 46.7702 13.2777V18.5324H44.5638V13.568C44.5638 12.968 44.3315 12.668 43.867 12.668C43.4412 12.668 43.0299 12.8809 42.6332 13.3067V18.5324H40.4268V11.0277H41.7913L42.2267 12.1745C42.9912 11.2938 43.809 10.8535 44.6799 10.8535C45.5509 10.8535 46.1557 11.2406 46.4944 12.0148Z" fill="#9D9D9D"/>
<path d="M56.4193 13.7277V13.539C56.4193 13.2003 56.3419 12.9535 56.187 12.7986C56.0419 12.6438 55.7854 12.5664 55.4177 12.5664C54.8467 12.5664 54.1451 12.7599 53.3129 13.147L52.558 11.6954C53.5258 11.1342 54.5419 10.8535 55.6064 10.8535C56.6031 10.8535 57.3531 11.1003 57.8564 11.5938C58.3692 12.0777 58.6257 12.7696 58.6257 13.6696V18.5324H57.2612C57.0096 18.0002 56.8789 17.7341 56.8693 17.7341C56.1822 18.3631 55.4467 18.6776 54.6629 18.6776C53.9951 18.6776 53.4338 18.484 52.979 18.097C52.5339 17.7002 52.3113 17.1631 52.3113 16.4857C52.3113 15.6922 52.5677 15.1115 53.0806 14.7438C53.6806 14.2986 54.7935 13.9599 56.4193 13.7277ZM56.4193 16.6744V15.0922C55.4612 15.2857 54.8806 15.4986 54.6774 15.7309C54.5419 15.876 54.4741 16.0744 54.4741 16.326C54.4741 16.8583 54.7306 17.1244 55.2435 17.1244C55.6693 17.1244 56.0612 16.9744 56.4193 16.6744Z" fill="#9D9D9D"/>
<path d="M60.3862 18.5324V11.0277H61.7507L62.1862 12.1745C62.9507 11.2938 63.7878 10.8535 64.6975 10.8535C66.1297 10.8535 66.8458 11.768 66.8458 13.597V18.5324H64.6394V13.568C64.6394 12.968 64.3878 12.668 63.8846 12.668C63.4201 12.668 62.9894 12.8809 62.5927 13.3067V18.5324H60.3862Z" fill="#9D9D9D"/>
<path d="M69.1301 12.5374H68.0269V11.0278H69.1591L69.5365 8.89392H71.3365V11.0278H72.9332V12.5374H71.3365V16.1519C71.3365 16.4809 71.3897 16.7083 71.4962 16.8341C71.6026 16.9599 71.8203 17.0228 72.1494 17.0228C72.3332 17.0228 72.5897 16.9744 72.9187 16.8777L73.18 18.4018C72.6284 18.5857 72.0671 18.6776 71.4962 18.6776C69.9188 18.6776 69.1301 17.8744 69.1301 16.268V12.5374Z" fill="#9D9D9D"/>
<path d="M76.3642 15.426C76.4126 15.9389 76.5529 16.3163 76.7852 16.5583C77.0271 16.8002 77.3852 16.9212 77.8593 16.9212C78.1206 16.9212 78.3819 16.8825 78.6432 16.805C78.9142 16.7276 79.1125 16.655 79.2384 16.5873C79.3738 16.5196 79.5722 16.4131 79.8335 16.2679L80.7045 17.6615C80.4045 17.8841 80.148 18.0582 79.9351 18.184C79.7222 18.3002 79.4174 18.4115 79.0206 18.5179C78.6238 18.6244 78.1835 18.6776 77.6997 18.6776C76.5965 18.6776 75.7158 18.3389 75.0578 17.6615C74.4094 16.9744 74.0852 16.0405 74.0852 14.8599C74.0852 13.6793 74.3949 12.7164 75.0142 11.9712C75.6336 11.2261 76.4852 10.8535 77.569 10.8535C78.6819 10.8535 79.5141 11.2261 80.0658 11.9712C80.6174 12.7164 80.8932 13.6744 80.8932 14.8454V15.426H76.3642ZM76.3642 14.1341H78.6432C78.6432 13.0019 78.2803 12.4358 77.5545 12.4357C77.2061 12.4358 76.9352 12.5712 76.7416 12.8422C76.5481 13.1035 76.4223 13.5341 76.3642 14.1341Z" fill="#9D9D9D"/>
<path d="M85.6096 18.6776C84.4096 18.6776 83.5048 18.3244 82.8951 17.6179C82.2951 16.9018 81.9951 15.968 81.9951 14.8164C81.9951 13.6648 82.3096 12.7164 82.9386 11.9712C83.5677 11.2261 84.458 10.8535 85.6096 10.8535C86.6257 10.8535 87.4531 11.1342 88.0918 11.6954L87.0612 13.1615C86.7999 12.968 86.5725 12.8374 86.3789 12.7696C86.1854 12.6922 85.9338 12.6535 85.6241 12.6535C84.7241 12.6535 84.2741 13.3648 84.2741 14.7873C84.2741 16.1809 84.7338 16.8776 85.6531 16.8776C86.1467 16.8776 86.645 16.6792 87.1483 16.2825L88.2079 17.647C87.5208 18.334 86.6547 18.6776 85.6096 18.6776Z" fill="#9D9D9D"/>
<path d="M14.2068 7.98474C12.3123 10.3525 11.8349 11.3921 11.0802 13.3065C10.2239 11.5745 9.20194 10.3792 7.43269 9.58754C7.09753 9.50199 6.93272 9.45237 6.7069 9.76899C6.48107 10.0856 6.618 10.3705 6.88835 10.7065C7.59679 11.5869 8.39291 12.4004 8.94477 13.398C9.59173 14.5674 10.3972 16.4948 10.6685 16.9967C10.8843 17.3958 11.4061 17.5713 11.606 17.5713C12.6767 17.4446 12.6771 16.9003 12.8812 15.9567C13.2122 14.4094 13.6408 12.8097 15.6584 10.8879V7.98474H14.2068Z" fill="#9D9D9D"/>
<path d="M22.1901 0.724731V1.45053H22.9159V0.724731H22.1901ZM22.1901 1.45053H20.7385V2.17632H22.1901V1.45053ZM20.7385 2.17632H20.0127V3.62791H20.7385V2.17632ZM20.7385 3.62791V4.35371H21.4643V3.62791H20.7385ZM21.4643 3.62791H22.1901V2.90212H21.4643V3.62791ZM20.7385 4.35371H20.0127V5.0795H19.2869V4.35371H17.8353V5.0795H17.1095V5.8053H17.8353V6.53109H17.1095V5.8053H16.3837V6.53109H15.6579V7.25689H14.9321V10.1601H16.3837V9.43427H17.1095V8.70848H17.8353V7.98268H17.1095V7.25689H17.8353V7.98268H18.5611V7.25689H19.2869V6.53109H20.0127V5.8053H20.7385V4.35371ZM19.2869 4.35371H20.0127V3.62791H19.2869V4.35371ZM19.2869 3.62791V2.90212H18.5611V3.62791H19.2869Z" fill="#9D9D9D"/>
</svg>
