<svg width="78" height="18" viewBox="0 0 78 18" fill="none" xmlns="http://www.w3.org/2000/svg">
<path d="M27.3901 10.2416L26.9276 11.552H26.889C26.8119 11.2566 26.6706 10.8069 26.4394 10.2673L23.9599 4.03643H21.5317V13.9673H23.1376V7.8392C23.1376 7.45379 23.1376 7.01698 23.1248 6.4774C23.1119 6.20761 23.0863 6.00205 23.0734 5.84788H23.1119C23.189 6.2333 23.279 6.51594 23.3432 6.6958L26.3237 13.9416H27.4543L30.4092 6.63156C30.4734 6.46455 30.5376 6.13052 30.6019 5.84788H30.6404C30.6019 6.58017 30.5762 7.23538 30.5633 7.63365V13.9288H32.272V4.01073H29.9338L27.3901 10.2416ZM33.8908 6.81142H35.5609V13.9288H33.8908V6.81142ZM34.7387 3.80518C34.456 3.80518 34.2248 3.90796 34.0321 4.08782C33.8394 4.26768 33.7366 4.49893 33.7366 4.78157C33.7366 5.05136 33.8394 5.28261 34.0321 5.46247C34.2248 5.64233 34.456 5.73226 34.7387 5.73226C35.0213 5.73226 35.2654 5.62948 35.4453 5.46247C35.638 5.28261 35.7408 5.05136 35.7408 4.78157C35.7408 4.51177 35.638 4.28052 35.4453 4.08782C35.2783 3.90796 35.0342 3.80518 34.7387 3.80518ZM41.4835 6.74719C41.1751 6.68295 40.8539 6.64441 40.5456 6.64441C39.7876 6.64441 39.0939 6.81142 38.5157 7.14545C37.9376 7.47948 37.4751 7.94198 37.1796 8.5201C36.8713 9.11108 36.7171 9.79198 36.7171 10.5757C36.7171 11.2566 36.8713 11.8604 37.1668 12.4128C37.4623 12.9524 37.8734 13.3892 38.4258 13.6847C38.9526 13.9802 39.5692 14.1343 40.263 14.1343C41.0595 14.1343 41.7404 13.9673 42.28 13.659L42.2928 13.6461V12.1045L42.2286 12.1559C41.9845 12.3357 41.7019 12.4899 41.4192 12.5798C41.1237 12.6826 40.8539 12.734 40.6227 12.734C39.9546 12.734 39.4279 12.5413 39.0553 12.1173C38.6699 11.7062 38.4772 11.1409 38.4772 10.4343C38.4772 9.70205 38.6699 9.12392 39.0682 8.69996C39.4664 8.27601 39.9932 8.0576 40.6355 8.0576C41.1751 8.0576 41.7276 8.23747 42.2286 8.59719L42.2928 8.64858V7.01698L42.28 7.00413C42.0616 6.9142 41.8175 6.81142 41.4835 6.74719ZM46.9949 6.6958C46.5838 6.6958 46.1984 6.82427 45.8644 7.09406C45.5817 7.32531 45.389 7.65934 45.222 8.0576H45.2091V6.81142H43.539V13.9288H45.2091V10.293C45.2091 9.67635 45.3376 9.16246 45.6203 8.7899C45.9029 8.40448 46.2626 8.21177 46.6994 8.21177C46.8536 8.21177 47.0078 8.25031 47.2005 8.27601C47.3803 8.3274 47.5088 8.37878 47.5987 8.44302L47.663 8.49441V6.82427L47.6244 6.81142C47.5088 6.73434 47.2775 6.6958 46.9949 6.6958ZM51.5428 6.65726C50.3737 6.65726 49.4359 7.00413 48.7807 7.68504C48.1126 8.36594 47.7914 9.30378 47.7914 10.4857C47.7914 11.5906 48.1255 12.4899 48.7678 13.1451C49.4102 13.7875 50.2838 14.1215 51.3758 14.1215C52.5192 14.1215 53.4314 13.7746 54.0866 13.0809C54.7546 12.3871 55.0758 11.4621 55.0758 10.3187C55.0758 9.18816 54.7675 8.28885 54.138 7.63365C53.5341 6.97844 52.6477 6.65726 51.5428 6.65726ZM52.8789 12.1302C52.5706 12.5284 52.0824 12.7211 51.4786 12.7211C50.8748 12.7211 50.3866 12.5284 50.0397 12.1045C49.6928 11.7062 49.5258 11.1281 49.5258 10.3958C49.5258 9.63781 49.7057 9.05969 50.0397 8.64858C50.3866 8.23747 50.8619 8.03191 51.4657 8.03191C52.0567 8.03191 52.5192 8.22462 52.8532 8.62288C53.1873 9.02114 53.3671 9.59927 53.3671 10.3573C53.3414 11.1281 53.2001 11.7319 52.8789 12.1302ZM58.8015 9.76628C58.2748 9.54788 57.9407 9.38087 57.7866 9.23955C57.6581 9.11108 57.5939 8.93121 57.5939 8.69996C57.5939 8.50726 57.6709 8.31455 57.8636 8.18608C58.0564 8.0576 58.2748 7.99337 58.5959 7.99337C58.8786 7.99337 59.1741 8.04476 59.4567 8.12184C59.7393 8.19892 59.9963 8.31455 60.2018 8.46872L60.2661 8.5201V6.95274L60.2275 6.9399C60.0348 6.86281 59.7779 6.78573 59.4695 6.72149C59.1612 6.67011 58.8786 6.64441 58.6473 6.64441C57.8508 6.64441 57.1956 6.83712 56.6817 7.26108C56.1678 7.65934 55.9237 8.19892 55.9237 8.82844C55.9237 9.16246 55.9751 9.45795 56.0907 9.70205C56.2064 9.94614 56.3734 10.1774 56.6046 10.3701C56.8359 10.55 57.1699 10.7555 57.6324 10.9482C58.0178 11.1152 58.3133 11.2437 58.4932 11.3465C58.673 11.4493 58.7886 11.5649 58.8786 11.6548C58.9428 11.7576 58.9814 11.8861 58.9814 12.0531C58.9814 12.5284 58.6216 12.7597 57.8893 12.7597C57.6067 12.7597 57.3112 12.7083 56.9643 12.5927C56.6175 12.477 56.2963 12.31 56.0265 12.1173L55.9623 12.0659V13.6975L56.0008 13.7104C56.2449 13.826 56.5404 13.9031 56.9001 13.993C57.2598 14.0573 57.581 14.1086 57.8636 14.1086C58.7244 14.1086 59.431 13.9159 59.932 13.492C60.4459 13.0809 60.7157 12.5541 60.7157 11.8732C60.7157 11.3979 60.5873 10.9739 60.3046 10.6527C59.932 10.3444 59.4695 10.0232 58.8015 9.76628ZM65.1223 6.65726C63.9532 6.65726 63.0154 7.00413 62.3602 7.68504C61.705 8.36594 61.3709 9.30378 61.3709 10.4857C61.3709 11.5906 61.705 12.4899 62.3473 13.1451C62.9897 13.7875 63.8633 14.1215 64.9553 14.1215C66.0987 14.1215 67.0109 13.7746 67.6661 13.0809C68.3341 12.3871 68.6553 11.4621 68.6553 10.3187C68.6553 9.18816 68.347 8.28885 67.7174 7.63365C67.1136 6.97844 66.2272 6.65726 65.1223 6.65726ZM66.4456 12.1302C66.1372 12.5284 65.6491 12.7211 65.0452 12.7211C64.4286 12.7211 63.9532 12.5284 63.6063 12.1045C63.2595 11.7062 63.0925 11.1281 63.0925 10.3958C63.0925 9.63781 63.2723 9.05969 63.6063 8.64858C63.9532 8.23747 64.4286 8.03191 65.0324 8.03191C65.6105 8.03191 66.0859 8.22462 66.4199 8.62288C66.7539 9.02114 66.9338 9.59927 66.9338 10.3573C66.9338 11.1281 66.7668 11.7319 66.4456 12.1302ZM77.5841 8.18608V6.81142H75.9011V4.70448L75.8497 4.71733L74.2567 5.19268L74.2181 5.20552V6.81142H71.7001V5.91212C71.7001 5.50101 71.8029 5.17983 71.9827 4.97427C72.1626 4.76872 72.4324 4.66594 72.7664 4.66594C72.9977 4.66594 73.2418 4.71733 73.5115 4.83295L73.5758 4.8715V3.41976L73.5372 3.40691C73.306 3.32983 72.9977 3.27844 72.5994 3.27844C72.0984 3.27844 71.6615 3.39407 71.2633 3.58678C70.865 3.80518 70.5695 4.10066 70.3511 4.49893C70.1327 4.88434 70.0171 5.32115 70.0171 5.82219V6.81142H68.848V8.17323H70.0171V13.9288H71.7001V8.18608H74.2181V11.8475C74.2181 13.3507 74.9247 14.1086 76.3379 14.1086C76.5692 14.1086 76.8133 14.0701 77.0445 14.0316C77.2886 13.9802 77.4685 13.9159 77.5713 13.8645L77.5841 13.8517V12.477L77.5199 12.5284C77.4171 12.5927 77.3272 12.6441 77.173 12.6826C77.0445 12.7211 76.9289 12.734 76.839 12.734C76.5049 12.734 76.2737 12.6569 76.1067 12.4642C75.9525 12.2843 75.8754 11.9889 75.8754 11.552V8.18608H77.5841Z" fill="#9D9D9D"/>
<path d="M0 0.696655H7.87534V8.57199H0V0.696655Z" fill="#9D9D9D"/>
<path d="M8.69751 0.695435H16.5728V8.57077H8.69751V0.695435Z" fill="#9D9D9D"/>
<path d="M0 9.3938H7.87534V17.2691H0V9.3938Z" fill="#9D9D9D"/>
<path d="M8.69751 9.3938H16.5728V17.2691H8.69751V9.3938Z" fill="#9D9D9D"/>
</svg>
