<svg width="75" height="20" viewBox="0 0 75 20" fill="none" xmlns="http://www.w3.org/2000/svg">
<path d="M23.8694 15.3028L24.7732 13.1855C25.7637 13.916 27.0514 14.2999 28.3391 14.2999C29.2801 14.2999 29.8868 13.9284 29.8868 13.3712C29.862 11.8236 24.1913 13.0246 24.1418 9.12442C24.117 7.1434 25.8876 5.6081 28.3762 5.6081C29.862 5.6081 31.3478 5.97954 32.4002 6.8091L31.5582 8.96347C30.5925 8.3444 29.3915 7.91105 28.2524 7.91105C27.4724 7.91105 26.9647 8.28249 26.9647 8.75298C26.9895 10.2883 32.7097 9.44634 32.7716 13.1731C32.7716 15.2037 31.0506 16.6152 28.5991 16.6152C26.7914 16.6399 25.1323 16.2066 23.8694 15.3028ZM59.8374 12.4303C59.3669 13.2598 58.5002 13.7675 57.5592 13.7675C56.1106 13.7675 54.9344 12.5912 54.9344 11.1426C54.9344 9.69397 56.1106 8.51774 57.5592 8.51774C58.5002 8.51774 59.3793 9.02537 59.8374 9.85493L62.3508 8.45583C61.4098 6.77196 59.6145 5.63286 57.5592 5.63286C54.5258 5.63286 52.0619 8.09676 52.0619 11.1426C52.0619 14.1884 54.5258 16.6523 57.5592 16.6523C59.6145 16.6523 61.4098 15.5132 62.3508 13.8294L59.8374 12.4303ZM34.406 16.4171H37.5509V1.03936H34.406V16.4171ZM63.9356 1.03936V16.4171H67.0805V11.8112L70.8073 16.4171H74.8189L70.0892 10.9445L74.4722 5.83097H70.634L67.0805 10.0778V1.02698H63.9356V1.03936ZM47.2207 5.84335V7.09387C46.7007 6.22717 45.4378 5.63286 44.1006 5.63286C41.3519 5.63286 39.1728 8.072 39.1728 11.1302C39.1728 14.1884 41.3396 16.6523 44.1006 16.6523C45.4378 16.6523 46.7007 16.0456 47.2207 15.1913V16.4418H50.3656V5.85573H47.2207V5.84335ZM47.2207 12.4426C46.775 13.1979 45.8216 13.7551 44.7692 13.7551C43.3206 13.7551 42.1444 12.5788 42.1444 11.1302C42.1444 9.68159 43.3206 8.50535 44.7692 8.50535C45.8216 8.50535 46.775 9.08728 47.2207 9.86731V12.4426Z" fill="#9D9D9D"/>
<path d="M7.27693 0.711548C6.26165 0.711548 5.43209 1.5411 5.43209 2.55638C5.43209 3.57165 6.26165 4.40121 7.27693 4.40121H9.12176V2.55638C9.12176 1.5411 8.30458 0.711548 7.27693 0.711548ZM7.27693 5.62697H2.37388C1.35861 5.62697 0.529053 6.45653 0.529053 7.4718C0.529053 8.48708 1.35861 9.31663 2.37388 9.31663H7.28931C8.30458 9.31663 9.13414 8.48708 9.13414 7.4718C9.12176 6.45653 8.30458 5.62697 7.27693 5.62697Z" fill="#9D9D9D"/>
<path d="M18.9525 7.46807C18.9525 6.4528 18.1229 5.62324 17.1077 5.62324C16.0924 5.62324 15.2628 6.4528 15.2628 7.46807V9.3129H17.1077C18.1229 9.32528 18.9525 8.49573 18.9525 7.46807ZM14.0371 7.46807V2.54026C14.0371 1.52499 13.2075 0.695435 12.1922 0.695435C11.177 0.695435 10.3474 1.52499 10.3474 2.54026V7.46807C10.3474 8.48335 11.177 9.3129 12.1922 9.3129C13.2199 9.32528 14.0371 8.49573 14.0371 7.46807Z" fill="#9D9D9D"/>
<path d="M12.1922 19.1661C13.2075 19.1661 14.0371 18.3365 14.0371 17.3212C14.0371 16.3059 13.2075 15.4764 12.1922 15.4764H10.3474V17.3212C10.3474 18.3365 11.177 19.1661 12.1922 19.1661ZM12.1922 14.2382H17.1077C18.1229 14.2382 18.9525 13.4087 18.9525 12.3934C18.9525 11.3781 18.1229 10.5486 17.1077 10.5486H12.1922C11.177 10.5486 10.3474 11.3781 10.3474 12.3934C10.3474 13.4087 11.177 14.2382 12.1922 14.2382Z" fill="#9D9D9D"/>
<path d="M0.529053 12.3934C0.529053 13.4087 1.35861 14.2382 2.37388 14.2382C3.38916 14.2382 4.21872 13.4087 4.21872 12.3934V10.5486H2.37388C1.34623 10.5486 0.529053 11.3781 0.529053 12.3934ZM5.44448 12.3934V17.3212C5.44448 18.3365 6.27403 19.1661 7.28931 19.1661C8.30458 19.1661 9.13414 18.3365 9.13414 17.3212V12.3934C9.13414 11.3781 8.30458 10.5486 7.28931 10.5486C6.26165 10.5486 5.44448 11.3781 5.44448 12.3934Z" fill="#9D9D9D"/>
</svg>
