<svg width="79" height="21" viewBox="0 0 79 21" fill="none" xmlns="http://www.w3.org/2000/svg">
<path d="M45.8599 2.2833L50.3313 4.04334L45.8599 5.70825V8.08668L53.5184 4.99472V3.09197L45.8599 0V2.2833Z" fill="#9D9D9D"/>
<path d="M4.80791 11.1304C2.66732 11.1304 1.09755 12.0817 0.954846 14.0796H3.33328V14.0321C3.38085 13.3661 3.99924 12.8904 4.66521 12.938C5.56901 12.938 5.99713 13.4612 5.99713 14.365V14.7932H4.90305C2.57218 14.7932 0.669434 15.5067 0.669434 17.7424V17.8376C0.669434 19.6452 2.00136 20.4538 3.61869 20.4538C4.61764 20.5014 5.52144 20.0257 6.09227 19.2646V20.3111H8.51827V14.3175C8.4707 12.0342 6.90094 11.1304 4.80791 11.1304ZM4.28466 18.6938C3.42842 18.6938 3.04787 18.2657 3.04787 17.6473V17.5521C3.04787 16.7435 3.66626 16.4105 4.90305 16.4105H5.90199V17.2667C5.94956 18.2181 5.14089 18.6938 4.28466 18.6938Z" fill="#9D9D9D"/>
<path d="M14.2267 18.5987C13.0375 18.5987 12.4191 17.79 12.4191 15.9824V15.697C12.4191 13.9369 13.1326 13.0807 14.2267 13.0807C15.0829 13.0807 15.5586 13.6515 15.7013 14.5078H18.0798C17.8895 12.1769 16.177 11.1304 14.1791 11.1304C11.8007 11.1304 9.89795 12.7477 9.89795 15.7921V15.8872C9.89795 18.9316 11.7056 20.4538 14.1791 20.4538C16.6051 20.4538 17.9846 18.9792 18.1749 16.9813H15.8916C15.7013 17.9803 15.0829 18.5987 14.2267 18.5987Z" fill="#9D9D9D"/>
<path d="M23.5023 18.5987C22.3131 18.5987 21.6947 17.79 21.6947 15.9824V15.697C21.6947 13.9369 22.4083 13.0807 23.5023 13.0807C24.3586 13.0807 24.8343 13.6515 24.977 14.5078H27.3554C27.1651 12.1769 25.4527 11.1304 23.4548 11.1304C21.0763 11.1304 19.1736 12.7477 19.1736 15.7921V15.8872C19.1736 18.9316 20.9812 20.4538 23.4548 20.4538C25.8808 20.4538 27.2603 18.9792 27.403 16.9813H25.1672C25.0245 17.9803 24.3586 18.5987 23.5023 18.5987Z" fill="#9D9D9D"/>
<path d="M32.8731 18.6462C31.779 18.6462 31.1131 18.0278 31.0179 16.4105H36.8213V15.364C36.8213 12.4147 34.9661 11.1304 32.7304 11.1304C30.3044 11.1304 28.4492 12.7953 28.4492 15.7921V15.9824C28.4492 18.9792 30.2093 20.5014 32.778 20.5014C35.1088 20.5014 36.5359 19.2171 36.7737 17.5046H34.4429C34.3477 18.2181 33.6342 18.7414 32.8731 18.6462ZM32.7304 12.8428C33.7293 12.8428 34.3477 13.4137 34.3953 14.7456H31.0655C31.2558 13.3185 31.9693 12.8904 32.7304 12.8428Z" fill="#9D9D9D"/>
<path d="M43.5768 11.1295C42.4352 11.0819 41.3887 11.6527 40.8654 12.6517V11.3197H38.3918V20.2627H40.8654V14.7923C40.8654 14.6971 40.8654 14.6495 40.8654 14.5544C40.913 13.7457 41.6265 13.0798 42.4352 13.1273C43.339 13.1273 43.7671 13.603 43.7671 14.6495V20.2627H46.2883V14.269C46.2883 12.0808 45.1942 11.1295 43.5768 11.1295Z" fill="#9D9D9D"/>
<path d="M50.9492 17.4092V13.1756H52.6617V11.3204H50.9492V8.60901L48.4757 9.65552V11.3204H47.3816V13.1756H48.4281V17.6946C48.4281 19.5022 49.3319 20.4061 51.2822 20.4061C51.7579 20.4061 52.2336 20.3585 52.7093 20.2158V18.2655C52.4239 18.3606 52.1385 18.4082 51.8531 18.4082C51.2822 18.4082 50.9492 18.0752 50.9492 17.4092Z" fill="#9D9D9D"/>
<path d="M59.5593 16.8865C59.5593 16.9816 59.5593 17.0292 59.5593 17.1243C59.5118 17.933 58.7982 18.5989 57.9896 18.5514C57.0858 18.5514 56.7052 18.0757 56.7052 17.0292V11.3209H54.1841V17.3622C54.1841 19.4552 55.3733 20.4541 56.9906 20.4541C58.0847 20.5017 59.0837 19.9309 59.6069 18.9319V20.2638H62.1281V11.3209H59.6069L59.5593 16.8865Z" fill="#9D9D9D"/>
<path d="M66.4094 12.938V11.2731H63.9358V20.216H66.4094V15.6018C66.4094 14.1272 67.4083 13.6039 69.1208 13.6039V11.1304C67.884 11.1304 66.7899 11.8439 66.4094 12.938Z" fill="#9D9D9D"/>
<path d="M78.2539 15.3164C78.2539 12.3672 76.3988 11.1304 74.163 11.1304C71.737 11.1304 69.8818 12.7953 69.8818 15.7921V15.9824C69.8818 18.9792 71.6419 20.5014 74.2106 20.5014C76.5415 20.5014 77.9209 19.2171 78.2064 17.5046H75.8755C75.6852 18.2657 74.9717 18.7414 74.2106 18.6938C73.1165 18.6938 72.4505 18.0754 72.3554 16.4581H78.1588V15.3164H78.2539ZM72.4506 14.7456C72.6408 13.271 73.3544 12.8428 74.163 12.8428C75.162 12.8428 75.7804 13.4137 75.8279 14.7456H72.4506Z" fill="#9D9D9D"/>
</svg>
