<svg width="111" height="16" viewBox="0 0 111 16" fill="none" xmlns="http://www.w3.org/2000/svg">
<path d="M46.5168 10.4748H53.5253L49.8195 3.77243L43.0179 15.8906H39.9224L48.1954 1.3341C48.5551 0.745954 49.1545 0.390625 49.8195 0.390625C50.4625 0.390625 51.062 0.733702 51.4108 1.30959L59.7164 15.8906H56.6209L55.1603 13.1827H48.0645L46.5168 10.4748ZM78.6712 13.1827V0.53766H76.0443V14.4203C76.0443 14.8001 76.1752 15.1677 76.4259 15.4495C76.6765 15.7313 77.0144 15.8906 77.385 15.8906H89.3639L90.9117 13.1827H78.6712ZM35.2137 10.9159C37.7643 10.9159 39.8352 8.60012 39.8352 5.73292C39.8352 2.86573 37.7643 0.53766 35.2137 0.53766H23.722V15.8906H26.3478V3.24557H35.0393C36.2601 3.24557 37.2411 4.36059 37.2411 5.73292C37.2411 7.10526 36.2601 8.22028 35.0393 8.22028L27.634 8.20801L35.4752 15.8906H39.2902L34.0147 10.9159H35.2137ZM7.55767 15.8906C3.78739 15.8906 0.727783 12.4598 0.727783 8.22028C0.727783 3.98074 3.78739 0.53766 7.55767 0.53766H15.4959C19.2673 0.53766 22.3247 3.98074 22.3247 8.22028C22.3247 12.4598 19.2673 15.8906 15.4959 15.8906H7.55767ZM15.3193 13.1827C17.762 13.1827 19.7403 10.9649 19.7403 8.22028C19.7403 5.47561 17.762 3.24557 15.3193 3.24557H7.73311C5.29156 3.24557 3.31211 5.47561 3.31211 8.22028C3.31211 10.9649 5.29156 13.1827 7.73311 13.1827H15.3193ZM65.199 15.8906C61.4277 15.8906 58.3649 12.4598 58.3649 8.22028C58.3649 3.98074 61.4277 0.53766 65.199 0.53766H74.6274L73.0905 3.24557H65.3734C62.9319 3.24557 60.9481 5.47561 60.9481 8.22028C60.9481 10.9649 62.9319 13.1827 65.3734 13.1827H74.8453L73.2976 15.8906H65.199ZM97.3208 13.1827C95.3043 13.1827 93.593 11.6633 93.0698 9.56809H104.297L105.844 6.86018H93.0698C93.593 4.77718 95.3043 3.24557 97.3208 3.24557H105.027L106.586 0.53766H97.1464C93.375 0.53766 90.3122 3.98074 90.3122 8.22028C90.3122 12.4598 93.375 15.8906 97.1464 15.8906H105.245L106.793 13.1827H97.3208Z" fill="#9D9D9D"/>
<path d="M107.992 2.16585C107.992 1.41841 108.526 0.818027 109.191 0.818027C109.867 0.818027 110.401 1.41841 110.401 2.16585C110.401 2.92553 109.867 3.52593 109.191 3.52593C108.526 3.52593 107.992 2.92553 107.992 2.16585ZM109.191 3.90578C110.041 3.90578 110.728 3.13384 110.728 2.17811C110.728 1.22238 110.041 0.450439 109.191 0.450439C108.352 0.450439 107.665 1.22238 107.665 2.17811C107.665 3.13384 108.352 3.90578 109.191 3.90578ZM109.049 1.14886C109.289 1.14886 109.387 1.16111 109.496 1.21011C109.801 1.3204 109.834 1.62673 109.834 1.74926C109.834 1.77376 109.834 1.83502 109.812 1.90854C109.801 1.98206 109.758 2.1291 109.605 2.23937C109.583 2.25163 109.573 2.26388 109.529 2.28838L109.921 3.08483H109.54L109.191 2.34964H108.951V3.08483H108.613V1.14886H109.049ZM109.169 2.03107C109.278 2.01883 109.387 2.01882 109.453 1.90854C109.485 1.85953 109.496 1.81052 109.496 1.73699C109.496 1.63898 109.442 1.55321 109.365 1.5042C109.289 1.46744 109.213 1.46744 109.049 1.46744H108.951V2.03107H109.169Z" fill="#9D9D9D"/>
</svg>
