<svg width="30" height="30" viewBox="0 0 30 30" fill="none" xmlns="http://www.w3.org/2000/svg">
<path d="M29.9326 14.8552C29.9326 23.0169 23.3163 29.6332 15.1547 29.6332C6.99303 29.6332 0.376709 23.0169 0.376709 14.8552C0.376709 6.69359 6.99303 0.0772705 15.1547 0.0772705C23.3163 0.0772705 29.9326 6.69359 29.9326 14.8552Z" fill="#2670FA"/>
<path d="M17.1054 16.2025L20.9434 12.5321C20.1462 9.4235 16.9799 7.54974 13.8712 8.34698C12.4713 8.70599 11.2555 9.5738 10.4609 10.781C10.5203 10.7795 17.1054 16.2025 17.1054 16.2025Z" fill="white"/>
<path d="M12.9619 11.4757L12.9618 11.4764C12.2284 11.0222 11.3826 10.7821 10.52 10.7832C10.5 10.7832 10.4804 10.7845 10.4606 10.7847C7.89462 10.8165 5.84027 12.9224 5.87204 15.4883C5.88355 16.4191 6.17438 17.325 6.70682 18.0885L12.4568 17.3683L16.8652 13.8137L12.9619 11.4757Z" fill="white"/>
<path d="M20.9434 12.5314C20.859 12.5257 20.7742 12.5218 20.6884 12.5218C20.1735 12.5213 19.664 12.6265 19.1914 12.8308L19.1913 12.8304L16.8654 13.8092L19.4295 16.9764L24.0135 18.0907C25.0027 16.2543 24.3159 13.9637 22.4794 12.9745C22.0049 12.7189 21.4811 12.5678 20.9434 12.5314V12.5314H20.9434Z" fill="white"/>
<path d="M6.70667 18.0849C7.57486 19.3331 8.99933 20.077 10.5198 20.0763H20.688C22.077 20.0766 23.354 19.3144 24.013 18.0917L16.865 13.8101L6.70667 18.0849Z" fill="white"/>
</svg>
