<svg width="447" height="401" viewBox="0 0 447 401" fill="none" xmlns="http://www.w3.org/2000/svg">
<g filter="url(#filter0_d)">
<path d="M234.656 156.989C234.656 154.045 237.042 151.659 239.986 151.659H346.593C349.536 151.659 351.923 154.045 351.923 156.989V241.208C351.923 244.152 349.536 246.538 346.593 246.538H239.986C237.042 246.538 234.656 244.152 234.656 241.208V156.989Z" fill="#4182FA"/>
<path d="M279.315 178.404C279.315 177.227 280.27 176.272 281.448 176.272H304.901C306.079 176.272 307.033 177.227 307.033 178.404V201.858C307.033 203.035 306.079 203.99 304.901 203.99H281.448C280.27 203.99 279.315 203.035 279.315 201.858V178.404Z" fill="white"/>
<path d="M271.772 219.996V211.574H274.149C274.882 211.574 275.529 211.736 276.092 212.06C276.655 212.384 277.089 212.845 277.394 213.443C277.702 214.04 277.858 214.727 277.862 215.502V216.04C277.862 216.834 277.708 217.53 277.399 218.127C277.095 218.725 276.657 219.184 276.086 219.504C275.52 219.824 274.858 219.988 274.103 219.996H271.772ZM272.882 212.488V219.088H274.051C274.907 219.088 275.572 218.822 276.046 218.289C276.524 217.757 276.763 217 276.763 216.016V215.525C276.763 214.569 276.538 213.826 276.086 213.298C275.639 212.766 275.003 212.496 274.178 212.488H272.882Z" fill="white"/>
<path d="M282.402 214.698C282.24 214.671 282.065 214.657 281.876 214.657C281.174 214.657 280.698 214.956 280.447 215.554V219.996H279.377V213.738H280.419L280.436 214.461C280.787 213.901 281.284 213.622 281.928 213.622C282.136 213.622 282.294 213.649 282.402 213.703V214.698Z" fill="white"/>
<path d="M282.992 216.809C282.992 216.196 283.112 215.644 283.351 215.155C283.594 214.665 283.929 214.287 284.357 214.021C284.789 213.755 285.281 213.622 285.832 213.622C286.684 213.622 287.373 213.917 287.897 214.507C288.425 215.097 288.689 215.881 288.689 216.861V216.936C288.689 217.545 288.572 218.093 288.336 218.579C288.105 219.061 287.772 219.437 287.336 219.706C286.904 219.976 286.407 220.111 285.844 220.111C284.995 220.111 284.307 219.816 283.779 219.226C283.254 218.636 282.992 217.856 282.992 216.884V216.809ZM284.068 216.936C284.068 217.63 284.228 218.187 284.548 218.608C284.872 219.028 285.304 219.238 285.844 219.238C286.387 219.238 286.819 219.026 287.139 218.602C287.459 218.174 287.619 217.576 287.619 216.809C287.619 216.122 287.455 215.567 287.128 215.143C286.804 214.715 286.372 214.501 285.832 214.501C285.304 214.501 284.878 214.711 284.554 215.131C284.23 215.552 284.068 216.153 284.068 216.936Z" fill="white"/>
<path d="M295.318 216.936C295.318 217.888 295.1 218.656 294.664 219.238C294.228 219.82 293.638 220.111 292.894 220.111C292.135 220.111 291.537 219.87 291.101 219.388V222.402H290.031V213.738H291.009L291.061 214.432C291.496 213.892 292.102 213.622 292.877 213.622C293.629 213.622 294.222 213.905 294.658 214.472C295.098 215.039 295.318 215.827 295.318 216.838V216.936ZM294.248 216.815C294.248 216.109 294.097 215.552 293.796 215.143C293.496 214.734 293.083 214.53 292.559 214.53C291.911 214.53 291.425 214.817 291.101 215.392V218.382C291.421 218.953 291.911 219.238 292.57 219.238C293.083 219.238 293.49 219.036 293.791 218.631C294.095 218.222 294.248 217.617 294.248 216.815Z" fill="white"/>
<path d="M301.98 216.936C301.98 217.892 301.761 218.661 301.321 219.244C300.881 219.822 300.292 220.111 299.551 220.111C298.761 220.111 298.15 219.832 297.718 219.273L297.666 219.996H296.682V211.112H297.752V214.426C298.184 213.89 298.78 213.622 299.54 213.622C300.299 213.622 300.895 213.909 301.327 214.484C301.763 215.058 301.98 215.845 301.98 216.843V216.936ZM300.91 216.815C300.91 216.086 300.77 215.523 300.488 215.126C300.207 214.729 299.802 214.53 299.274 214.53C298.568 214.53 298.061 214.858 297.752 215.513V218.22C298.08 218.875 298.591 219.203 299.285 219.203C299.798 219.203 300.197 219.005 300.482 218.608C300.768 218.21 300.91 217.613 300.91 216.815Z" fill="white"/>
<path d="M303.05 216.809C303.05 216.196 303.17 215.644 303.409 215.155C303.652 214.665 303.987 214.287 304.415 214.021C304.847 213.755 305.339 213.622 305.89 213.622C306.742 213.622 307.431 213.917 307.955 214.507C308.483 215.097 308.747 215.881 308.747 216.861V216.936C308.747 217.545 308.63 218.093 308.395 218.579C308.163 219.061 307.83 219.437 307.394 219.706C306.962 219.976 306.465 220.111 305.902 220.111C305.054 220.111 304.365 219.816 303.837 219.226C303.313 218.636 303.05 217.856 303.05 216.884V216.809ZM304.126 216.936C304.126 217.63 304.286 218.187 304.606 218.608C304.93 219.028 305.362 219.238 305.902 219.238C306.445 219.238 306.877 219.026 307.197 218.602C307.517 218.174 307.677 217.576 307.677 216.809C307.677 216.122 307.514 215.567 307.186 215.143C306.862 214.715 306.43 214.501 305.89 214.501C305.362 214.501 304.936 214.711 304.612 215.131C304.288 215.552 304.126 216.153 304.126 216.936Z" fill="white"/>
<path d="M312.062 216.022L313.45 213.738H314.699L312.651 216.832L314.763 219.996H313.525L312.079 217.653L310.633 219.996H309.389L311.5 216.832L309.453 213.738H310.691L312.062 216.022Z" fill="white"/>
<path d="M342.328 169.783C342.328 170.372 341.851 170.849 341.262 170.849C340.674 170.849 340.196 170.372 340.196 169.783C340.196 169.194 340.674 168.717 341.262 168.717C341.851 168.717 342.328 169.194 342.328 169.783Z" fill="white"/>
<path d="M338.597 169.783C338.597 170.372 338.119 170.849 337.531 170.849C336.942 170.849 336.465 170.372 336.465 169.783C336.465 169.194 336.942 168.717 337.531 168.717C338.119 168.717 338.597 169.194 338.597 169.783Z" fill="white"/>
<path d="M334.866 169.784C334.866 170.372 334.389 170.85 333.8 170.85C333.211 170.85 332.734 170.372 332.734 169.784C332.734 169.195 333.211 168.718 333.8 168.718C334.389 168.718 334.866 169.195 334.866 169.784Z" fill="white"/>
<g clip-path="url(#clip0)">
<path d="M289.914 183.738L285.916 186.328L288.699 188.567L292.696 186.072L289.914 183.738ZM285.916 190.742L289.914 193.364L292.696 191.029L288.699 188.567L285.916 190.742ZM292.696 191.029L295.511 193.364L299.476 190.774L296.726 188.567L292.696 191.029ZM299.476 186.328L295.511 183.738L292.696 186.072L296.726 188.567L299.476 186.328ZM292.728 191.541L289.914 193.876L288.731 193.076V193.972L292.728 196.37L296.726 193.972V193.076L295.511 193.876L292.728 191.541Z" fill="#007EE5"/>
</g>
</g>
<g filter="url(#filter1_d)">
<path d="M94.4966 212.264C94.4966 209.32 96.8831 206.934 99.827 206.934H206.433C209.377 206.934 211.764 209.32 211.764 212.264V296.483C211.764 299.427 209.377 301.813 206.433 301.813H99.827C96.8831 301.813 94.4966 299.427 94.4966 296.483V212.264Z" fill="white"/>
<path d="M138.815 234.038C138.815 232.861 139.77 231.906 140.948 231.906H164.401C165.578 231.906 166.533 232.861 166.533 234.038V257.492C166.533 258.669 165.578 259.624 164.401 259.624H140.948C139.77 259.624 138.815 258.669 138.815 257.492V234.038Z" fill="#F2F7FF"/>
<path d="M126.446 274.523C126.16 274.932 125.761 275.238 125.248 275.443C124.739 275.643 124.146 275.743 123.467 275.743C122.781 275.743 122.171 275.583 121.639 275.263C121.107 274.939 120.695 274.481 120.402 273.887C120.112 273.293 119.964 272.605 119.956 271.822V271.087C119.956 269.819 120.251 268.836 120.841 268.138C121.435 267.44 122.268 267.091 123.34 267.091C124.219 267.091 124.926 267.316 125.462 267.768C125.998 268.215 126.326 268.851 126.446 269.676H125.335C125.127 268.562 124.464 268.005 123.346 268.005C122.601 268.005 122.037 268.267 121.651 268.791C121.269 269.312 121.076 270.068 121.073 271.059V271.747C121.073 272.691 121.289 273.443 121.72 274.002C122.152 274.558 122.736 274.835 123.473 274.835C123.889 274.835 124.254 274.789 124.566 274.697C124.878 274.604 125.137 274.448 125.341 274.228V272.337H123.392V271.434H126.446V274.523Z" fill="#082B6B"/>
<path d="M127.851 272.441C127.851 271.828 127.971 271.276 128.21 270.787C128.453 270.297 128.788 269.919 129.216 269.653C129.648 269.387 130.14 269.254 130.691 269.254C131.543 269.254 132.231 269.549 132.756 270.139C133.284 270.729 133.548 271.514 133.548 272.493V272.568C133.548 273.177 133.431 273.725 133.195 274.211C132.964 274.693 132.63 275.069 132.195 275.339C131.763 275.608 131.266 275.743 130.703 275.743C129.854 275.743 129.166 275.448 128.638 274.858C128.113 274.269 127.851 273.488 127.851 272.516V272.441ZM128.927 272.568C128.927 273.262 129.087 273.819 129.407 274.24C129.731 274.66 130.163 274.87 130.703 274.87C131.246 274.87 131.678 274.658 131.998 274.234C132.318 273.806 132.478 273.208 132.478 272.441C132.478 271.755 132.314 271.199 131.987 270.775C131.663 270.347 131.231 270.133 130.691 270.133C130.163 270.133 129.737 270.343 129.413 270.764C129.089 271.184 128.927 271.785 128.927 272.568Z" fill="#082B6B"/>
<path d="M134.607 272.441C134.607 271.828 134.726 271.276 134.965 270.787C135.208 270.297 135.544 269.919 135.972 269.653C136.403 269.387 136.895 269.254 137.446 269.254C138.299 269.254 138.987 269.549 139.511 270.139C140.039 270.729 140.304 271.514 140.304 272.493V272.568C140.304 273.177 140.186 273.725 139.951 274.211C139.719 274.693 139.386 275.069 138.95 275.339C138.518 275.608 138.021 275.743 137.458 275.743C136.61 275.743 135.921 275.448 135.393 274.858C134.869 274.269 134.607 273.488 134.607 272.516V272.441ZM135.682 272.568C135.682 273.262 135.842 273.819 136.162 274.24C136.486 274.66 136.918 274.87 137.458 274.87C138.002 274.87 138.434 274.658 138.754 274.234C139.074 273.806 139.234 273.208 139.234 272.441C139.234 271.755 139.07 271.199 138.742 270.775C138.418 270.347 137.986 270.133 137.446 270.133C136.918 270.133 136.492 270.343 136.168 270.764C135.844 271.184 135.682 271.785 135.682 272.568Z" fill="#082B6B"/>
<path d="M141.391 272.447C141.391 271.471 141.617 270.696 142.068 270.122C142.519 269.543 143.116 269.254 143.861 269.254C144.624 269.254 145.22 269.524 145.648 270.064L145.7 269.37H146.677V275.477C146.677 276.287 146.436 276.925 145.954 277.392C145.476 277.858 144.832 278.092 144.023 278.092C143.571 278.092 143.13 277.995 142.698 277.802C142.266 277.61 141.937 277.345 141.709 277.01L142.264 276.368C142.723 276.935 143.284 277.218 143.947 277.218C144.468 277.218 144.873 277.072 145.162 276.779C145.455 276.486 145.602 276.073 145.602 275.541V275.003C145.174 275.497 144.589 275.743 143.849 275.743C143.116 275.743 142.523 275.448 142.068 274.858C141.617 274.269 141.391 273.465 141.391 272.447ZM142.467 272.568C142.467 273.274 142.611 273.829 142.901 274.234C143.19 274.635 143.595 274.835 144.115 274.835C144.79 274.835 145.285 274.529 145.602 273.916V271.059C145.274 270.461 144.782 270.162 144.127 270.162C143.606 270.162 143.199 270.364 142.906 270.769C142.613 271.174 142.467 271.774 142.467 272.568Z" fill="#082B6B"/>
<path d="M149.459 275.628H148.389V266.744H149.459V275.628Z" fill="#082B6B"/>
<path d="M153.774 275.743C152.926 275.743 152.236 275.466 151.703 274.911C151.171 274.351 150.905 273.605 150.905 272.672V272.476C150.905 271.855 151.023 271.301 151.258 270.816C151.497 270.326 151.829 269.944 152.253 269.67C152.681 269.393 153.144 269.254 153.641 269.254C154.455 269.254 155.087 269.522 155.538 270.058C155.989 270.594 156.215 271.361 156.215 272.36V272.805H151.975C151.991 273.422 152.17 273.921 152.513 274.303C152.86 274.681 153.3 274.87 153.832 274.87C154.21 274.87 154.53 274.793 154.792 274.639C155.054 274.484 155.284 274.28 155.48 274.026L156.134 274.535C155.609 275.34 154.823 275.743 153.774 275.743ZM153.641 270.133C153.209 270.133 152.847 270.291 152.554 270.607C152.261 270.92 152.079 271.359 152.01 271.926H155.145V271.845C155.114 271.301 154.967 270.881 154.705 270.584C154.443 270.284 154.088 270.133 153.641 270.133Z" fill="#082B6B"/>
<path d="M160.564 275.628V267.207H162.941C163.674 267.207 164.322 267.368 164.885 267.692C165.448 268.016 165.881 268.477 166.186 269.075C166.494 269.672 166.651 270.359 166.654 271.134V271.672C166.654 272.466 166.5 273.162 166.192 273.76C165.887 274.357 165.45 274.816 164.879 275.136C164.312 275.456 163.651 275.62 162.895 275.628H160.564ZM161.675 268.12V274.72H162.843C163.699 274.72 164.364 274.454 164.838 273.921C165.316 273.389 165.556 272.632 165.556 271.648V271.157C165.556 270.201 165.33 269.458 164.879 268.93C164.432 268.398 163.795 268.128 162.97 268.12H161.675Z" fill="#082B6B"/>
<path d="M171.195 270.33C171.033 270.303 170.857 270.289 170.668 270.289C169.967 270.289 169.49 270.588 169.24 271.186V275.628H168.17V269.37H169.211L169.228 270.093C169.579 269.534 170.077 269.254 170.72 269.254C170.929 269.254 171.087 269.281 171.195 269.335V270.33Z" fill="#082B6B"/>
<path d="M173.346 275.628H172.276V269.37H173.346V275.628ZM172.19 267.71C172.19 267.536 172.242 267.39 172.346 267.27C172.454 267.151 172.612 267.091 172.82 267.091C173.028 267.091 173.186 267.151 173.294 267.27C173.402 267.39 173.456 267.536 173.456 267.71C173.456 267.883 173.402 268.028 173.294 268.144C173.186 268.259 173.028 268.317 172.82 268.317C172.612 268.317 172.454 268.259 172.346 268.144C172.242 268.028 172.19 267.883 172.19 267.71Z" fill="#082B6B"/>
<path d="M177.129 274.176L178.679 269.37H179.772L177.528 275.628H176.712L174.445 269.37H175.538L177.129 274.176Z" fill="#082B6B"/>
<path d="M183.317 275.743C182.469 275.743 181.779 275.466 181.247 274.911C180.715 274.351 180.449 273.605 180.449 272.672V272.476C180.449 271.855 180.566 271.301 180.802 270.816C181.041 270.326 181.372 269.944 181.796 269.67C182.224 269.393 182.687 269.254 183.184 269.254C183.998 269.254 184.63 269.522 185.082 270.058C185.533 270.594 185.758 271.361 185.758 272.36V272.805H181.519C181.534 273.422 181.713 273.921 182.057 274.303C182.404 274.681 182.843 274.87 183.375 274.87C183.753 274.87 184.073 274.793 184.335 274.639C184.598 274.484 184.827 274.28 185.024 274.026L185.677 274.535C185.153 275.34 184.366 275.743 183.317 275.743ZM183.184 270.133C182.753 270.133 182.39 270.291 182.097 270.607C181.804 270.92 181.623 271.359 181.553 271.926H184.688V271.845C184.657 271.301 184.511 270.881 184.249 270.584C183.986 270.284 183.632 270.133 183.184 270.133Z" fill="#082B6B"/>
<path d="M202.17 225.062C202.17 225.651 201.692 226.128 201.104 226.128C200.515 226.128 200.038 225.651 200.038 225.062C200.038 224.473 200.515 223.996 201.104 223.996C201.692 223.996 202.17 224.473 202.17 225.062Z" fill="#DCE3EB"/>
<path d="M198.438 225.062C198.438 225.651 197.961 226.128 197.372 226.128C196.784 226.128 196.306 225.651 196.306 225.062C196.306 224.473 196.784 223.996 197.372 223.996C197.961 223.996 198.438 224.473 198.438 225.062Z" fill="#DCE3EB"/>
<path d="M194.707 225.062C194.707 225.651 194.23 226.128 193.641 226.128C193.052 226.128 192.575 225.651 192.575 225.062C192.575 224.473 193.052 223.996 193.641 223.996C194.23 223.996 194.707 224.473 194.707 225.062Z" fill="#DCE3EB"/>
<g clip-path="url(#clip1)">
<path d="M150.288 238.951L150.301 238.951L150.302 238.965L150.286 238.966L150.288 238.951Z" fill="#0BA25E"/>
<path d="M150.238 239.049C150.249 239.032 150.271 239 150.283 238.983L150.303 238.98C150.318 239.165 150.372 239.343 150.413 239.523C150.589 240.304 150.766 241.085 150.951 241.865C151.071 242.399 151.206 242.931 151.317 243.467C151.413 243.799 151.465 244.142 151.558 244.474C151.618 244.784 151.712 245.087 151.763 245.399C151.742 245.433 151.722 245.467 151.701 245.501C151.696 245.509 151.686 245.526 151.681 245.534L151.673 245.547C151.672 245.549 151.669 245.554 151.668 245.556C151.657 245.577 151.634 245.619 151.622 245.64C151.62 245.644 151.616 245.651 151.614 245.655L151.593 245.692C151.59 245.696 151.585 245.705 151.583 245.709L151.559 245.751C151.558 245.754 151.555 245.758 151.554 245.761L151.524 245.813C151.521 245.817 151.516 245.827 151.513 245.831C151.51 245.836 151.504 245.846 151.501 245.851L151.472 245.902C151.47 245.905 151.465 245.914 151.463 245.917L151.445 245.948C151.442 245.953 151.435 245.964 151.432 245.969C151.421 245.989 151.398 246.03 151.386 246.05C151.384 246.053 151.38 246.061 151.378 246.065L151.359 246.095C151.356 246.101 151.35 246.111 151.347 246.117C151.336 246.136 151.314 246.173 151.303 246.192C151.3 246.197 151.295 246.206 151.293 246.21L151.271 246.249C151.269 246.253 151.265 246.26 151.263 246.264L151.24 246.303C151.238 246.307 151.233 246.315 151.231 246.319C151.219 246.339 151.197 246.377 151.185 246.397C151.183 246.401 151.177 246.41 151.175 246.415L151.154 246.452C151.152 246.456 151.148 246.462 151.146 246.466L151.123 246.507C151.12 246.511 151.116 246.518 151.114 246.522C151.102 246.543 151.078 246.585 151.065 246.606C151.063 246.609 151.059 246.617 151.056 246.621L151.039 246.65C151.036 246.655 151.03 246.665 151.027 246.67C151.016 246.69 150.994 246.728 150.983 246.747C150.981 246.75 150.977 246.757 150.975 246.76L150.951 246.803C150.95 246.806 150.946 246.812 150.944 246.815L150.92 246.858C150.918 246.862 150.914 246.869 150.912 246.872C150.9 246.891 150.877 246.929 150.866 246.948C150.863 246.953 150.857 246.964 150.854 246.969L150.837 247.001C150.834 247.005 150.83 247.013 150.828 247.017L150.798 247.069C150.795 247.073 150.79 247.082 150.788 247.086C150.785 247.09 150.781 247.099 150.778 247.103C150.729 247.186 150.684 247.272 150.63 247.352C150.319 247.858 150.034 248.38 149.733 248.892C149.245 249.737 148.758 250.581 148.27 251.426C148.197 251.557 148.113 251.683 148.05 251.821C148.047 251.825 148.041 251.835 148.038 251.839C147.921 251.671 147.83 251.485 147.723 251.31C147.235 250.465 146.747 249.62 146.259 248.775C145.988 248.299 145.706 247.83 145.442 247.35C146.487 245.547 147.527 243.741 148.57 241.937C148.57 241.935 148.572 241.932 148.573 241.93L148.602 241.881C148.603 241.879 148.605 241.875 148.607 241.873L148.636 241.824C148.638 241.819 148.644 241.81 148.646 241.805C148.649 241.8 148.655 241.79 148.658 241.785L148.687 241.733C148.689 241.73 148.693 241.723 148.695 241.719L148.717 241.685C148.721 241.68 148.728 241.668 148.732 241.662C148.742 241.647 148.764 241.615 148.774 241.599C148.776 241.594 148.778 241.584 148.779 241.579L148.804 241.53C148.805 241.528 148.808 241.524 148.809 241.522L148.838 241.473C148.841 241.468 148.847 241.458 148.85 241.453C148.853 241.448 148.859 241.436 148.863 241.431L148.887 241.388C148.89 241.383 148.895 241.374 148.898 241.37L148.918 241.334C148.921 241.33 148.925 241.322 148.927 241.318C148.939 241.298 148.962 241.259 148.973 241.24C148.976 241.236 148.98 241.227 148.983 241.223L149.004 241.185C149.006 241.182 149.009 241.175 149.011 241.172L149.039 241.123C149.042 241.117 149.05 241.106 149.053 241.1L149.072 241.071C149.076 241.065 149.084 241.054 149.088 241.048C149.092 241.043 149.099 241.031 149.103 241.025L149.119 240.995C149.124 240.983 149.135 240.961 149.14 240.949L149.156 240.927C149.159 240.923 149.164 240.915 149.167 240.911C149.178 240.902 149.2 240.883 149.211 240.874L149.209 240.84C149.211 240.836 149.215 240.827 149.217 240.823L149.241 240.774C149.243 240.771 149.248 240.763 149.25 240.76L149.271 240.724C149.276 240.718 149.283 240.707 149.288 240.701C149.297 240.685 149.318 240.653 149.327 240.637C149.33 240.631 149.336 240.619 149.339 240.613L149.354 240.58C149.359 240.571 149.369 240.553 149.373 240.544L149.393 240.517C149.397 240.511 149.405 240.5 149.409 240.495C149.413 240.489 149.42 240.477 149.423 240.472L149.438 240.441C149.441 240.435 149.448 240.421 149.451 240.414L149.476 240.366C149.48 240.36 149.487 240.348 149.49 240.342L149.51 240.313C149.514 240.307 149.522 240.296 149.526 240.29C149.53 240.285 149.537 240.273 149.541 240.267L149.555 240.237C149.56 240.228 149.568 240.211 149.572 240.203L149.592 240.17C149.596 240.165 149.603 240.154 149.606 240.148C149.617 240.132 149.638 240.099 149.649 240.083C149.65 240.078 149.653 240.068 149.654 240.063L149.679 240.015C149.68 240.013 149.682 240.009 149.684 240.007L149.713 239.957C149.716 239.952 149.721 239.943 149.724 239.938C149.727 239.933 149.733 239.923 149.736 239.919L149.765 239.868C149.766 239.865 149.768 239.861 149.769 239.859L149.797 239.812C149.798 239.81 149.801 239.805 149.802 239.803L149.831 239.753C149.834 239.749 149.839 239.74 149.842 239.735C149.845 239.73 149.851 239.72 149.854 239.715L149.882 239.666C149.883 239.662 149.887 239.656 149.889 239.653L149.912 239.615C149.916 239.61 149.924 239.598 149.927 239.593C149.938 239.577 149.959 239.545 149.97 239.529C149.97 239.524 149.973 239.514 149.974 239.509L149.999 239.461C150.001 239.458 150.005 239.45 150.007 239.447L150.029 239.412C150.033 239.406 150.041 239.395 150.045 239.389C150.055 239.373 150.076 239.34 150.086 239.324C150.087 239.32 150.09 239.31 150.091 239.306L150.117 239.257C150.118 239.255 150.121 239.251 150.122 239.249L150.152 239.199C150.154 239.194 150.159 239.185 150.162 239.181C150.164 239.176 150.17 239.167 150.172 239.162L150.201 239.11C150.203 239.108 150.205 239.104 150.206 239.102L150.234 239.055C150.235 239.053 150.237 239.05 150.238 239.049Z" fill="#0BA25E"/>
<path d="M150.3 238.95C151.247 238.945 152.194 238.949 153.141 238.948C153.925 238.95 154.709 238.941 155.492 238.952C155.507 238.982 155.523 239.011 155.54 239.041C155.542 239.044 155.546 239.052 155.549 239.057C155.625 239.189 155.702 239.32 155.776 239.452C155.778 239.455 155.78 239.459 155.782 239.461C155.927 239.71 156.071 239.96 156.214 240.211C156.215 240.213 156.218 240.217 156.219 240.219C156.245 240.264 156.272 240.308 156.298 240.353C156.301 240.357 156.305 240.365 156.307 240.369C156.344 240.433 156.38 240.497 156.417 240.561C156.419 240.563 156.421 240.567 156.422 240.569C156.459 240.633 156.496 240.697 156.533 240.761C156.535 240.765 156.539 240.772 156.542 240.776C156.579 240.838 156.615 240.901 156.65 240.964C156.652 240.968 156.657 240.976 156.659 240.98C157.007 241.581 157.354 242.182 157.701 242.784C157.662 242.959 157.757 243.133 157.704 243.308C157.672 243.788 157.491 244.254 157.192 244.631C157.095 244.736 157.189 244.882 157.179 245.007C157.074 245.134 156.94 245.229 156.812 245.331C156.813 245.426 156.813 245.522 156.809 245.618C156.695 245.693 156.565 245.736 156.45 245.809C156.438 245.847 156.425 245.886 156.413 245.926C156.321 245.97 156.222 245.998 156.13 246.042C155.764 245.937 155.402 245.82 155.037 245.712C154.697 245.6 154.35 245.512 154.013 245.388L153.994 245.354C153.992 245.351 153.99 245.346 153.988 245.343L153.96 245.296C153.957 245.291 153.952 245.282 153.949 245.277C153.946 245.272 153.941 245.264 153.939 245.259C153.918 245.223 153.899 245.185 153.882 245.147L153.881 245.143L153.878 245.14C153.866 245.119 153.84 245.078 153.827 245.058C153.825 245.056 153.822 245.051 153.821 245.048L153.812 245.035C153.807 245.026 153.797 245.01 153.792 245.001C153.78 244.98 153.754 244.938 153.742 244.916C153.739 244.911 153.732 244.9 153.729 244.895L153.711 244.865C153.709 244.861 153.704 244.853 153.702 244.849L153.674 244.8C153.673 244.798 153.67 244.794 153.669 244.792L153.639 244.741C153.637 244.736 153.631 244.727 153.629 244.722C153.626 244.717 153.62 244.706 153.617 244.701L153.593 244.658C153.59 244.653 153.584 244.643 153.581 244.638L153.562 244.605C153.56 244.601 153.555 244.592 153.552 244.587C153.541 244.567 153.518 244.525 153.506 244.504C153.505 244.502 153.502 244.497 153.501 244.494L153.493 244.481C153.487 244.472 153.476 244.456 153.471 244.448C153.442 244.399 153.415 244.35 153.389 244.3C153.388 244.298 153.385 244.293 153.384 244.29L153.376 244.277C153.371 244.269 153.36 244.253 153.354 244.246C153.341 244.223 153.316 244.177 153.303 244.154C153.301 244.151 153.298 244.146 153.297 244.144L153.289 244.13C153.284 244.12 153.272 244.101 153.266 244.092L153.241 244.049C153.239 244.045 153.234 244.037 153.231 244.033C153.22 244.014 153.198 243.975 153.186 243.956C153.184 243.951 153.179 243.942 153.176 243.937C153.156 243.905 153.137 243.871 153.119 243.838C153.117 243.835 153.114 243.83 153.113 243.828L153.085 243.78C153.082 243.775 153.077 243.766 153.074 243.761C153.071 243.757 153.066 243.748 153.064 243.744L153.034 243.692C153.033 243.69 153.03 243.685 153.029 243.683L153.005 243.64C153.003 243.636 152.999 243.63 152.997 243.626C152.986 243.607 152.963 243.568 152.952 243.548C152.95 243.544 152.945 243.536 152.943 243.533C152.925 243.503 152.907 243.472 152.889 243.442C152.081 242.039 151.272 240.638 150.461 239.236C150.411 239.148 150.365 239.057 150.303 238.977L150.301 238.964L150.3 238.95Z" fill="#FCCD48"/>
<path d="M150.286 238.971L150.305 238.971L150.307 238.986L150.282 238.99L150.286 238.971Z" fill="#089156"/>
<path d="M150.303 238.984C150.365 239.064 150.411 239.155 150.462 239.242C151.272 240.644 152.081 242.046 152.89 243.449C152.515 244.101 152.138 244.751 151.763 245.402C151.712 245.09 151.618 244.788 151.558 244.478C151.465 244.145 151.413 243.802 151.317 243.47C151.206 242.934 151.071 242.402 150.95 241.868C150.766 241.089 150.589 240.308 150.413 239.526C150.372 239.347 150.318 239.168 150.303 238.984Z" fill="#089156"/>
<path d="M150.234 239.064C150.235 239.061 150.239 239.055 150.241 239.052C150.239 239.055 150.235 239.061 150.234 239.064Z" fill="#089156"/>
<path d="M150.202 239.114C150.203 239.112 150.205 239.107 150.207 239.105C150.205 239.107 150.203 239.112 150.202 239.114Z" fill="#089156"/>
<path d="M150.162 239.184C150.164 239.18 150.169 239.17 150.172 239.166C150.169 239.17 150.164 239.18 150.162 239.184Z" fill="#089156"/>
<path d="M150.151 239.202C150.154 239.198 150.159 239.189 150.162 239.184C150.159 239.189 150.154 239.198 150.151 239.202Z" fill="#089156"/>
<path d="M150.117 239.263C150.118 239.26 150.121 239.255 150.123 239.253C150.121 239.255 150.118 239.26 150.117 239.263Z" fill="#089156"/>
<path d="M150.086 239.326C150.087 239.321 150.089 239.312 150.091 239.308C150.089 239.312 150.087 239.321 150.086 239.326Z" fill="#089156"/>
<path d="M150.045 239.396C150.055 239.379 150.076 239.346 150.086 239.33C150.076 239.346 150.055 239.379 150.045 239.396Z" fill="#089156"/>
<path d="M150.029 239.413C150.033 239.408 150.041 239.396 150.045 239.391C150.041 239.396 150.033 239.408 150.029 239.413Z" fill="#089156"/>
<path d="M149.998 239.465C150.001 239.461 150.006 239.452 150.008 239.448C150.006 239.452 150.001 239.461 149.998 239.465Z" fill="#089156"/>
<path d="M149.969 239.536C149.971 239.53 149.973 239.518 149.975 239.512C149.973 239.518 149.971 239.53 149.969 239.536Z" fill="#089156"/>
<path d="M149.927 239.596C149.938 239.58 149.959 239.547 149.97 239.531C149.959 239.547 149.938 239.58 149.927 239.596Z" fill="#089156"/>
<path d="M149.912 239.619C149.915 239.613 149.923 239.602 149.926 239.597C149.923 239.602 149.915 239.613 149.912 239.619Z" fill="#089156"/>
<path d="M149.882 239.668C149.883 239.665 149.887 239.659 149.888 239.656C149.887 239.659 149.883 239.665 149.882 239.668Z" fill="#089156"/>
<path d="M149.841 239.743C149.845 239.737 149.852 239.725 149.855 239.718C149.852 239.725 149.845 239.737 149.841 239.743Z" fill="#089156"/>
<path d="M149.831 239.758C149.834 239.754 149.839 239.745 149.841 239.741C149.839 239.745 149.834 239.754 149.831 239.758Z" fill="#089156"/>
<path d="M149.797 239.817C149.799 239.815 149.802 239.81 149.803 239.807C149.802 239.81 149.799 239.815 149.797 239.817Z" fill="#089156"/>
<path d="M149.765 239.871C149.766 239.869 149.768 239.864 149.769 239.862C149.768 239.864 149.766 239.869 149.765 239.871Z" fill="#089156"/>
<path d="M149.724 239.943C149.727 239.938 149.734 239.926 149.737 239.921C149.734 239.926 149.727 239.938 149.724 239.943Z" fill="#089156"/>
<path d="M149.713 239.966C149.716 239.96 149.722 239.949 149.726 239.943C149.722 239.949 149.716 239.96 149.713 239.966Z" fill="#089156"/>
<path d="M149.679 240.022C149.68 240.019 149.684 240.013 149.686 240.009C149.684 240.013 149.68 240.019 149.679 240.022Z" fill="#089156"/>
<path d="M149.649 240.09C149.65 240.084 149.653 240.073 149.655 240.067C149.653 240.073 149.65 240.084 149.649 240.09Z" fill="#089156"/>
<path d="M149.606 240.153C149.617 240.136 149.638 240.103 149.649 240.087C149.638 240.103 149.617 240.136 149.606 240.153Z" fill="#089156"/>
<path d="M149.592 240.174C149.595 240.169 149.602 240.158 149.605 240.153C149.602 240.158 149.595 240.169 149.592 240.174Z" fill="#089156"/>
<path d="M149.555 240.239C149.559 240.231 149.568 240.215 149.572 240.207C149.568 240.215 149.559 240.231 149.555 240.239Z" fill="#089156"/>
<path d="M149.526 240.294C149.53 240.289 149.537 240.277 149.54 240.271C149.537 240.277 149.53 240.289 149.526 240.294Z" fill="#089156"/>
<path d="M149.51 240.318C149.514 240.312 149.522 240.301 149.526 240.295C149.522 240.301 149.514 240.312 149.51 240.318Z" fill="#089156"/>
<path d="M149.476 240.371C149.48 240.365 149.487 240.353 149.49 240.346C149.487 240.353 149.48 240.365 149.476 240.371Z" fill="#089156"/>
<path d="M149.437 240.443C149.441 240.436 149.447 240.423 149.45 240.416C149.447 240.423 149.441 240.436 149.437 240.443Z" fill="#089156"/>
<path d="M149.408 240.499C149.412 240.493 149.419 240.481 149.423 240.475C149.419 240.481 149.412 240.493 149.408 240.499Z" fill="#089156"/>
<path d="M149.393 240.516C149.397 240.511 149.404 240.501 149.408 240.496C149.404 240.501 149.397 240.511 149.393 240.516Z" fill="#089156"/>
<path d="M149.354 240.582C149.358 240.573 149.368 240.556 149.373 240.547C149.368 240.556 149.358 240.573 149.354 240.582Z" fill="#089156"/>
<path d="M149.327 240.642C149.33 240.636 149.335 240.625 149.338 240.619C149.335 240.625 149.33 240.636 149.327 240.642Z" fill="#089156"/>
<path d="M149.287 240.706C149.297 240.69 149.318 240.657 149.328 240.641C149.318 240.657 149.297 240.69 149.287 240.706Z" fill="#089156"/>
<path d="M149.271 240.725C149.275 240.719 149.283 240.708 149.287 240.702C149.283 240.708 149.275 240.719 149.271 240.725Z" fill="#089156"/>
<path d="M149.241 240.782C149.243 240.777 149.248 240.769 149.251 240.765C149.248 240.769 149.243 240.777 149.241 240.782Z" fill="#089156"/>
<path d="M149.209 240.84C149.21 240.836 149.214 240.828 149.217 240.823C149.214 240.828 149.21 240.836 149.209 240.84Z" fill="#089156"/>
<path d="M149.167 240.914C149.177 240.896 149.198 240.86 149.209 240.842L149.211 240.876C149.2 240.886 149.178 240.905 149.167 240.914Z" fill="#089156"/>
<path d="M149.156 240.931C149.159 240.927 149.165 240.918 149.168 240.914C149.165 240.918 149.159 240.927 149.156 240.931Z" fill="#089156"/>
<path d="M149.119 240.998C149.124 240.986 149.135 240.962 149.141 240.951C149.135 240.962 149.124 240.986 149.119 240.998Z" fill="#089156"/>
<path d="M149.088 241.051C149.091 241.045 149.098 241.034 149.102 241.028C149.098 241.034 149.091 241.045 149.088 241.051Z" fill="#089156"/>
<path d="M149.072 241.074C149.077 241.069 149.084 241.057 149.088 241.052C149.084 241.057 149.077 241.069 149.072 241.074Z" fill="#089156"/>
<path d="M149.039 241.127C149.043 241.121 149.05 241.109 149.054 241.103C149.05 241.109 149.043 241.121 149.039 241.127Z" fill="#089156"/>
<path d="M149.003 241.191C149.005 241.188 149.008 241.182 149.01 241.179C149.008 241.182 149.005 241.188 149.003 241.191Z" fill="#089156"/>
<path d="M148.973 241.247C148.976 241.243 148.981 241.235 148.983 241.23C148.981 241.235 148.976 241.243 148.973 241.247Z" fill="#089156"/>
<path d="M148.917 241.338C148.92 241.334 148.925 241.325 148.928 241.321C148.925 241.325 148.92 241.334 148.917 241.338Z" fill="#089156"/>
<path d="M148.887 241.388C148.889 241.383 148.895 241.375 148.897 241.37C148.895 241.375 148.889 241.383 148.887 241.388Z" fill="#089156"/>
<path d="M148.85 241.459C148.853 241.454 148.859 241.443 148.863 241.437C148.859 241.443 148.853 241.454 148.85 241.459Z" fill="#089156"/>
<path d="M148.837 241.478C148.841 241.472 148.847 241.461 148.851 241.455C148.847 241.461 148.841 241.472 148.837 241.478Z" fill="#089156"/>
<path d="M148.804 241.531C148.805 241.529 148.807 241.525 148.808 241.523C148.807 241.525 148.805 241.529 148.804 241.531Z" fill="#089156"/>
<path d="M148.774 241.607C148.776 241.6 148.778 241.588 148.78 241.582C148.778 241.588 148.776 241.6 148.774 241.607Z" fill="#089156"/>
<path d="M148.732 241.669C148.742 241.653 148.764 241.62 148.775 241.604C148.764 241.62 148.742 241.653 148.732 241.669Z" fill="#089156"/>
<path d="M148.716 241.688C148.72 241.682 148.727 241.671 148.731 241.665C148.727 241.671 148.72 241.682 148.716 241.688Z" fill="#089156"/>
<path d="M148.687 241.737C148.689 241.733 148.694 241.725 148.697 241.72C148.694 241.725 148.689 241.733 148.687 241.737Z" fill="#089156"/>
<path d="M148.646 241.807C148.649 241.802 148.655 241.792 148.658 241.787C148.655 241.792 148.649 241.802 148.646 241.807Z" fill="#089156"/>
<path d="M148.635 241.826C148.638 241.822 148.643 241.813 148.646 241.809C148.643 241.813 148.638 241.822 148.635 241.826Z" fill="#089156"/>
<path d="M148.602 241.883C148.603 241.881 148.605 241.877 148.607 241.875C148.605 241.877 148.603 241.881 148.602 241.883Z" fill="#089156"/>
<path d="M148.57 241.938C148.571 241.936 148.573 241.932 148.574 241.93C148.573 241.932 148.571 241.936 148.57 241.938Z" fill="#089156"/>
<path d="M151.681 245.535C151.685 245.527 151.696 245.511 151.701 245.503C151.696 245.511 151.685 245.527 151.681 245.535Z" fill="#089156"/>
<path d="M151.668 245.564C151.67 245.561 151.673 245.556 151.674 245.553C151.673 245.556 151.67 245.561 151.668 245.564Z" fill="#089156"/>
<path d="M151.614 245.662C151.616 245.657 151.621 245.649 151.623 245.645C151.621 245.649 151.616 245.657 151.614 245.662Z" fill="#089156"/>
<path d="M151.583 245.712C151.585 245.708 151.59 245.699 151.593 245.695C151.59 245.699 151.585 245.708 151.583 245.712Z" fill="#089156"/>
<path d="M151.554 245.765C151.555 245.762 151.559 245.756 151.56 245.754C151.559 245.756 151.555 245.762 151.554 245.765Z" fill="#089156"/>
<path d="M151.513 245.834C151.516 245.83 151.521 245.821 151.523 245.816C151.521 245.821 151.516 245.83 151.513 245.834Z" fill="#089156"/>
<path d="M151.501 245.858C151.504 245.852 151.511 245.841 151.515 245.835C151.511 245.841 151.504 245.852 151.501 245.858Z" fill="#089156"/>
<path d="M151.463 245.922C151.465 245.918 151.47 245.909 151.473 245.905C151.47 245.909 151.465 245.918 151.463 245.922Z" fill="#089156"/>
<path d="M151.432 245.972C151.435 245.967 151.441 245.956 151.444 245.951C151.441 245.956 151.435 245.967 151.432 245.972Z" fill="#089156"/>
<path d="M151.377 246.07C151.38 246.065 151.385 246.056 151.387 246.052C151.385 246.056 151.38 246.065 151.377 246.07Z" fill="#089156"/>
<path d="M151.346 246.122C151.35 246.116 151.357 246.104 151.36 246.098C151.357 246.104 151.35 246.116 151.346 246.122Z" fill="#089156"/>
<path d="M151.292 246.214C151.295 246.209 151.3 246.2 151.303 246.196C151.3 246.2 151.295 246.209 151.292 246.214Z" fill="#089156"/>
<path d="M151.262 246.27C151.265 246.266 151.27 246.257 151.272 246.253C151.27 246.257 151.265 246.266 151.262 246.27Z" fill="#089156"/>
<path d="M151.231 246.327C151.233 246.322 151.238 246.314 151.24 246.31C151.238 246.314 151.233 246.322 151.231 246.327Z" fill="#089156"/>
<path d="M151.174 246.42C151.177 246.415 151.182 246.406 151.184 246.402C151.182 246.406 151.177 246.415 151.174 246.42Z" fill="#089156"/>
<path d="M151.146 246.472C151.148 246.468 151.152 246.46 151.155 246.455C151.152 246.46 151.148 246.468 151.146 246.472Z" fill="#089156"/>
<path d="M151.114 246.528C151.116 246.524 151.122 246.515 151.124 246.511C151.122 246.515 151.116 246.524 151.114 246.528Z" fill="#089156"/>
<path d="M151.056 246.628C151.059 246.624 151.064 246.616 151.066 246.612C151.064 246.616 151.059 246.624 151.056 246.628Z" fill="#089156"/>
<path d="M151.026 246.675C151.029 246.669 151.035 246.659 151.038 246.654C151.035 246.659 151.029 246.669 151.026 246.675Z" fill="#089156"/>
<path d="M150.975 246.765C150.977 246.761 150.982 246.754 150.983 246.75C150.982 246.754 150.977 246.761 150.975 246.765Z" fill="#089156"/>
<path d="M150.944 246.816C150.946 246.813 150.949 246.807 150.951 246.803C150.949 246.807 150.946 246.813 150.944 246.816Z" fill="#089156"/>
<path d="M150.912 246.879C150.914 246.875 150.919 246.868 150.921 246.864C150.919 246.868 150.914 246.875 150.912 246.879Z" fill="#089156"/>
<path d="M150.854 246.971C150.857 246.966 150.863 246.956 150.866 246.951C150.863 246.956 150.857 246.966 150.854 246.971Z" fill="#089156"/>
<path d="M150.828 247.024C150.83 247.019 150.835 247.011 150.837 247.006C150.835 247.011 150.83 247.019 150.828 247.024Z" fill="#089156"/>
<path d="M150.788 247.09C150.791 247.086 150.796 247.077 150.798 247.072C150.796 247.077 150.791 247.086 150.788 247.09Z" fill="#089156"/>
<path d="M150.778 247.108C150.78 247.104 150.785 247.095 150.788 247.091C150.785 247.095 150.78 247.104 150.778 247.108Z" fill="#089156"/>
<path d="M155.54 239.044C155.542 239.048 155.547 239.057 155.549 239.062C155.547 239.057 155.542 239.048 155.54 239.044Z" fill="#10985B"/>
<path d="M155.777 239.456C155.778 239.459 155.781 239.464 155.783 239.467C155.781 239.464 155.778 239.459 155.777 239.456Z" fill="#10985B"/>
<path d="M156.214 240.211C156.215 240.214 156.218 240.218 156.219 240.22C156.218 240.218 156.215 240.214 156.214 240.211Z" fill="#10985B"/>
<path d="M156.298 240.355C156.301 240.359 156.305 240.368 156.308 240.372C156.305 240.368 156.301 240.359 156.298 240.355Z" fill="#10985B"/>
<path d="M156.418 240.565C156.419 240.567 156.421 240.571 156.423 240.574C156.421 240.571 156.419 240.567 156.418 240.565Z" fill="#10985B"/>
<path d="M156.532 240.762C156.535 240.766 156.54 240.774 156.542 240.779C156.54 240.774 156.535 240.766 156.532 240.762Z" fill="#10985B"/>
<path d="M156.65 240.97C156.653 240.974 156.657 240.983 156.66 240.987C156.657 240.983 156.653 240.974 156.65 240.97Z" fill="#10985B"/>
<path d="M157.702 242.787C158.208 243.665 158.719 244.542 159.221 245.423C159.224 245.426 159.228 245.435 159.231 245.438C159.242 245.458 159.266 245.496 159.277 245.515C159.279 245.519 159.284 245.526 159.286 245.53L159.31 245.57C159.311 245.573 159.314 245.578 159.316 245.581L159.345 245.632C159.348 245.637 159.353 245.647 159.356 245.652C159.359 245.656 159.364 245.665 159.367 245.67L159.395 245.719C159.397 245.721 159.399 245.726 159.4 245.728L159.429 245.777C159.43 245.779 159.432 245.782 159.433 245.784L159.462 245.834C159.465 245.839 159.47 245.849 159.473 245.854C159.476 245.858 159.481 245.868 159.484 245.873L159.513 245.925C159.518 245.935 159.526 245.955 159.53 245.965L159.538 245.981L159.542 245.989L159.548 245.998L159.565 246.023C159.571 246.033 159.583 246.052 159.59 246.062C159.593 246.068 159.601 246.079 159.604 246.085L159.623 246.116C159.629 246.129 159.641 246.156 159.647 246.169L159.655 246.184L159.659 246.19L159.661 246.194C159.674 246.213 159.699 246.251 159.712 246.27C159.715 246.276 159.722 246.286 159.725 246.291L159.743 246.32C159.746 246.325 159.751 246.334 159.753 246.339L159.783 246.39C159.785 246.395 159.791 246.404 159.793 246.409C159.796 246.413 159.801 246.423 159.804 246.427L159.833 246.477C159.834 246.479 159.837 246.484 159.838 246.486L159.865 246.532C159.866 246.535 159.87 246.541 159.872 246.544L159.899 246.591C159.902 246.597 159.908 246.607 159.911 246.613C159.914 246.617 159.919 246.627 159.922 246.631C159.943 246.667 159.964 246.704 159.983 246.741C159.986 246.747 159.992 246.759 159.995 246.765L160.008 246.796C160.012 246.801 160.019 246.813 160.022 246.819C160.026 246.825 160.035 246.836 160.039 246.842L160.059 246.87C160.063 246.876 160.07 246.887 160.073 246.893L160.103 246.944C160.106 246.948 160.111 246.958 160.113 246.962C160.116 246.967 160.121 246.976 160.124 246.981L160.153 247.031C160.154 247.033 160.157 247.037 160.158 247.039L160.186 247.088C160.187 247.09 160.189 247.094 160.19 247.096L160.219 247.145C160.222 247.15 160.227 247.16 160.23 247.165C160.233 247.17 160.239 247.18 160.242 247.185L160.271 247.235C160.272 247.237 160.274 247.241 160.275 247.243L160.306 247.301L160.306 247.327C159.576 247.117 158.859 246.869 158.127 246.667C157.464 246.453 156.794 246.258 156.13 246.044C156.222 246 156.321 245.972 156.414 245.928C156.426 245.889 156.438 245.85 156.45 245.811C156.566 245.739 156.696 245.695 156.809 245.62C156.813 245.524 156.813 245.429 156.813 245.333C156.94 245.231 157.074 245.136 157.179 245.009C157.19 244.885 157.095 244.739 157.193 244.633C157.491 244.257 157.672 243.79 157.704 243.31C157.758 243.135 157.662 242.961 157.702 242.787Z" fill="#F9C941"/>
<path d="M160.306 247.328L160.321 247.329L160.33 247.351L160.313 247.352L160.306 247.328Z" fill="#F9C941"/>
<path d="M152.943 243.538C152.945 243.542 152.95 243.551 152.953 243.555C152.95 243.551 152.945 243.542 152.943 243.538Z" fill="#E3B73A"/>
<path d="M152.997 243.634C153 243.638 153.004 243.646 153.007 243.65C153.004 243.646 153 243.638 152.997 243.634Z" fill="#E3B73A"/>
<path d="M153.03 243.693C153.032 243.696 153.035 243.701 153.037 243.704C153.035 243.701 153.032 243.696 153.03 243.693Z" fill="#E3B73A"/>
<path d="M153.065 243.75C153.067 243.754 153.072 243.763 153.075 243.768C153.072 243.763 153.067 243.754 153.065 243.75Z" fill="#E3B73A"/>
<path d="M153.075 243.767C153.077 243.771 153.083 243.78 153.085 243.785C153.083 243.78 153.077 243.771 153.075 243.767Z" fill="#E3B73A"/>
<path d="M153.111 243.831C153.113 243.834 153.116 243.84 153.118 243.843C153.116 243.84 153.113 243.834 153.111 243.831Z" fill="#E3B73A"/>
<path d="M153.176 243.94C153.178 243.944 153.183 243.953 153.186 243.957C153.183 243.953 153.178 243.944 153.176 243.94Z" fill="#E3B73A"/>
<path d="M153.231 244.037C153.234 244.042 153.239 244.05 153.241 244.054C153.239 244.05 153.234 244.042 153.231 244.037Z" fill="#E3B73A"/>
<path d="M153.266 244.094C153.272 244.104 153.284 244.123 153.29 244.133C153.284 244.123 153.272 244.104 153.266 244.094Z" fill="#E3B73A"/>
<path d="M153.297 244.146C153.299 244.149 153.302 244.155 153.304 244.157C153.302 244.155 153.299 244.149 153.297 244.146Z" fill="#E3B73A"/>
<path d="M153.354 244.247C153.359 244.255 153.37 244.27 153.376 244.278C153.37 244.27 153.359 244.255 153.354 244.247Z" fill="#E3B73A"/>
<path d="M153.383 244.293C153.385 244.296 153.388 244.302 153.389 244.304C153.388 244.302 153.385 244.296 153.383 244.293Z" fill="#E3B73A"/>
<path d="M153.471 244.448C153.476 244.456 153.487 244.472 153.492 244.48C153.487 244.472 153.476 244.456 153.471 244.448Z" fill="#E3B73A"/>
<path d="M153.501 244.494C153.502 244.497 153.506 244.503 153.507 244.505C153.506 244.503 153.502 244.497 153.501 244.494Z" fill="#E3B73A"/>
<path d="M153.552 244.593C153.554 244.598 153.559 244.607 153.562 244.611C153.559 244.607 153.554 244.598 153.552 244.593Z" fill="#E3B73A"/>
<path d="M153.581 244.641C153.584 244.647 153.591 244.66 153.595 244.666C153.591 244.66 153.584 244.647 153.581 244.641Z" fill="#E3B73A"/>
<path d="M153.617 244.704C153.62 244.709 153.626 244.72 153.629 244.725C153.626 244.72 153.62 244.709 153.617 244.704Z" fill="#E3B73A"/>
<path d="M153.628 244.726C153.631 244.73 153.636 244.739 153.639 244.744C153.636 244.739 153.631 244.73 153.628 244.726Z" fill="#E3B73A"/>
<path d="M153.669 244.796C153.67 244.798 153.673 244.803 153.674 244.805C153.673 244.803 153.67 244.798 153.669 244.796Z" fill="#E3B73A"/>
<path d="M153.702 244.853C153.705 244.858 153.71 244.866 153.712 244.871C153.71 244.866 153.705 244.858 153.702 244.853Z" fill="#E3B73A"/>
<path d="M153.729 244.899C153.732 244.904 153.738 244.915 153.741 244.92C153.738 244.915 153.732 244.904 153.729 244.899Z" fill="#E3B73A"/>
<path d="M153.792 245.004C153.797 245.012 153.807 245.029 153.812 245.037C153.807 245.029 153.797 245.012 153.792 245.004Z" fill="#E3B73A"/>
<path d="M153.821 245.05C153.823 245.053 153.826 245.059 153.828 245.061C153.826 245.059 153.823 245.053 153.821 245.05Z" fill="#E3B73A"/>
<path d="M153.879 245.144L153.881 245.148L153.883 245.152C153.882 245.15 153.88 245.146 153.879 245.144Z" fill="#E3B73A"/>
<path d="M153.939 245.26C153.941 245.265 153.946 245.273 153.949 245.278C153.946 245.273 153.941 245.265 153.939 245.26Z" fill="#E3B73A"/>
<path d="M153.948 245.28C153.952 245.286 153.959 245.298 153.962 245.304C153.959 245.298 153.952 245.286 153.948 245.28Z" fill="#E3B73A"/>
<path d="M153.988 245.347C153.989 245.35 153.992 245.356 153.994 245.359C153.992 245.356 153.989 245.35 153.988 245.347Z" fill="#E3B73A"/>
<path d="M154.013 245.391C154.349 245.515 154.697 245.603 155.037 245.715C155.402 245.823 155.764 245.94 156.13 246.045C156.793 246.258 157.463 246.453 158.127 246.667C158.117 246.809 158.145 246.955 158.11 247.094C158.083 247.229 157.921 247.251 157.854 247.359C156.957 247.359 156.06 247.362 155.164 247.358L155.144 247.357C154.774 246.698 154.389 246.047 154.013 245.391Z" fill="#E3B73A"/>
<path d="M159.222 245.426C159.224 245.43 159.229 245.439 159.232 245.443C159.229 245.439 159.224 245.43 159.222 245.426Z" fill="#E8B835"/>
<path d="M159.277 245.518C159.28 245.522 159.285 245.531 159.287 245.535C159.285 245.531 159.28 245.522 159.277 245.518Z" fill="#E8B835"/>
<path d="M159.31 245.572C159.312 245.574 159.315 245.581 159.317 245.584C159.315 245.581 159.312 245.574 159.31 245.572Z" fill="#E8B835"/>
<path d="M159.345 245.636C159.348 245.642 159.355 245.654 159.359 245.66C159.355 245.654 159.348 245.642 159.345 245.636Z" fill="#E8B835"/>
<path d="M159.356 245.651C159.358 245.655 159.364 245.664 159.366 245.668C159.364 245.664 159.358 245.655 159.356 245.651Z" fill="#E8B835"/>
<path d="M159.395 245.724C159.396 245.726 159.399 245.73 159.4 245.732C159.399 245.73 159.396 245.726 159.395 245.724Z" fill="#E8B835"/>
<path d="M159.429 245.78C159.43 245.783 159.434 245.789 159.436 245.792C159.434 245.789 159.43 245.783 159.429 245.78Z" fill="#E8B835"/>
<path d="M159.462 245.839C159.465 245.844 159.472 245.855 159.475 245.861C159.472 245.855 159.465 245.844 159.462 245.839Z" fill="#E8B835"/>
<path d="M159.473 245.853C159.476 245.859 159.483 245.87 159.486 245.876C159.483 245.87 159.476 245.859 159.473 245.853Z" fill="#E8B835"/>
<path d="M159.513 245.927C159.518 245.937 159.526 245.957 159.53 245.967C159.526 245.957 159.518 245.937 159.513 245.927Z" fill="#E8B835"/>
<path d="M159.538 245.986C159.541 245.99 159.546 245.999 159.548 246.003L159.542 245.995L159.538 245.986Z" fill="#E8B835"/>
<path d="M159.565 246.028C159.571 246.038 159.583 246.057 159.59 246.067C159.583 246.057 159.571 246.038 159.565 246.028Z" fill="#E8B835"/>
<path d="M159.589 246.063C159.593 246.069 159.6 246.081 159.604 246.086C159.6 246.081 159.593 246.069 159.589 246.063Z" fill="#E8B835"/>
<path d="M159.623 246.12C159.629 246.134 159.641 246.16 159.647 246.174C159.641 246.16 159.629 246.134 159.623 246.12Z" fill="#E8B835"/>
<path d="M159.656 246.188C159.657 246.191 159.661 246.197 159.662 246.2L159.659 246.195L159.656 246.188Z" fill="#E8B835"/>
<path d="M159.712 246.273C159.715 246.278 159.722 246.289 159.725 246.294C159.722 246.289 159.715 246.278 159.712 246.273Z" fill="#E8B835"/>
<path d="M159.743 246.325C159.746 246.329 159.751 246.338 159.753 246.342C159.751 246.338 159.746 246.329 159.743 246.325Z" fill="#E8B835"/>
<path d="M159.783 246.393C159.786 246.397 159.791 246.406 159.793 246.411C159.791 246.406 159.786 246.397 159.783 246.393Z" fill="#E8B835"/>
<path d="M159.793 246.408C159.796 246.412 159.801 246.421 159.803 246.425C159.801 246.421 159.796 246.412 159.793 246.408Z" fill="#E8B835"/>
<path d="M159.833 246.479C159.834 246.482 159.837 246.487 159.839 246.49C159.837 246.487 159.834 246.482 159.833 246.479Z" fill="#E8B835"/>
<path d="M159.865 246.535C159.867 246.538 159.871 246.546 159.873 246.549C159.871 246.546 159.867 246.538 159.865 246.535Z" fill="#E8B835"/>
<path d="M159.899 246.595C159.902 246.601 159.908 246.611 159.911 246.616C159.908 246.611 159.902 246.601 159.899 246.595Z" fill="#E8B835"/>
<path d="M159.911 246.616C159.914 246.62 159.919 246.629 159.922 246.634C159.919 246.629 159.914 246.62 159.911 246.616Z" fill="#E8B835"/>
<path d="M158.128 246.671C158.859 246.873 159.577 247.122 160.306 247.331L160.312 247.355C159.494 247.374 158.674 247.358 157.854 247.363C157.921 247.255 158.083 247.233 158.11 247.098C158.146 246.958 158.118 246.813 158.128 246.671Z" fill="#E8B835"/>
<path d="M159.983 246.741C159.986 246.747 159.992 246.759 159.995 246.765C159.992 246.759 159.986 246.747 159.983 246.741Z" fill="#E8B835"/>
<path d="M160.008 246.802C160.011 246.808 160.018 246.819 160.022 246.825C160.018 246.819 160.011 246.808 160.008 246.802Z" fill="#E8B835"/>
<path d="M160.022 246.822C160.026 246.828 160.034 246.838 160.038 246.844C160.034 246.838 160.026 246.828 160.022 246.822Z" fill="#E8B835"/>
<path d="M160.059 246.872C160.063 246.877 160.069 246.888 160.073 246.893C160.069 246.888 160.063 246.877 160.059 246.872Z" fill="#E8B835"/>
<path d="M160.103 246.947C160.105 246.952 160.111 246.961 160.113 246.965C160.111 246.961 160.105 246.952 160.103 246.947Z" fill="#E8B835"/>
<path d="M160.113 246.966C160.116 246.97 160.121 246.979 160.124 246.983C160.121 246.979 160.116 246.97 160.113 246.966Z" fill="#E8B835"/>
<path d="M160.153 247.032C160.154 247.034 160.157 247.038 160.158 247.04C160.157 247.038 160.154 247.034 160.153 247.032Z" fill="#E8B835"/>
<path d="M160.186 247.093C160.188 247.096 160.191 247.102 160.193 247.105C160.191 247.102 160.188 247.096 160.186 247.093Z" fill="#E8B835"/>
<path d="M160.218 247.15C160.222 247.156 160.229 247.168 160.232 247.174C160.229 247.168 160.222 247.156 160.218 247.15Z" fill="#E8B835"/>
<path d="M160.23 247.168C160.234 247.174 160.241 247.186 160.244 247.192C160.241 247.186 160.234 247.174 160.23 247.168Z" fill="#E8B835"/>
<path d="M160.271 247.238C160.272 247.24 160.274 247.244 160.275 247.246C160.274 247.244 160.272 247.24 160.271 247.238Z" fill="#E8B835"/>
<path d="M160.306 247.306C160.31 247.313 160.317 247.326 160.32 247.333L160.306 247.332L160.306 247.306Z" fill="#E8B835"/>
<path d="M149.733 248.89C150.034 248.378 150.32 247.856 150.63 247.349C152.135 247.355 153.64 247.341 155.145 247.355L155.164 247.356C154.403 247.381 153.64 247.35 152.879 247.369C152.734 247.463 152.637 247.614 152.498 247.716C152.369 247.811 152.274 247.942 152.151 248.042C151.978 248.17 151.849 248.346 151.674 248.471C151.471 248.686 151.237 248.867 151.032 249.081C150.879 249.198 150.751 249.344 150.608 249.474C150.451 249.588 150.33 249.742 150.183 249.868C150.179 249.871 150.172 249.878 150.168 249.881C150.161 249.887 150.145 249.9 150.137 249.906C150.133 249.909 150.126 249.915 150.123 249.918C150.007 250.008 149.918 250.126 149.805 250.218C149.801 250.221 149.794 250.227 149.79 250.23C149.786 250.233 149.779 250.239 149.775 250.242C149.609 250.378 149.476 250.551 149.302 250.677C149.127 250.851 148.929 251 148.763 251.184C148.517 251.386 148.304 251.625 148.051 251.818C148.114 251.681 148.197 251.555 148.27 251.424C148.758 250.579 149.245 249.735 149.733 248.89Z" fill="#296AD9"/>
<path d="M148.037 251.84C148.04 251.836 148.047 251.827 148.05 251.822L148.049 251.84L148.037 251.84Z" fill="#296AD9"/>
<path d="M155.164 247.356C156.061 247.36 156.957 247.358 157.854 247.357C158.673 247.353 159.493 247.368 160.312 247.35L160.329 247.349L160.341 247.352V247.354C159.476 248.849 158.615 250.345 157.75 251.84C154.516 251.839 151.283 251.843 148.049 251.837L148.05 251.818C148.304 251.625 148.517 251.386 148.763 251.184C148.929 251 149.127 250.851 149.302 250.677C149.476 250.551 149.609 250.378 149.775 250.242C149.778 250.239 149.786 250.233 149.79 250.23C149.793 250.227 149.8 250.221 149.804 250.218C149.918 250.126 150.006 250.008 150.122 249.918C150.126 249.915 150.133 249.909 150.137 249.906C150.145 249.9 150.16 249.887 150.168 249.881C150.172 249.878 150.179 249.871 150.183 249.868C150.33 249.742 150.45 249.588 150.607 249.474C150.75 249.344 150.878 249.198 151.032 249.081C151.236 248.867 151.47 248.686 151.673 248.471C151.849 248.346 151.977 248.17 152.15 248.042C152.273 247.942 152.368 247.811 152.498 247.716C152.637 247.614 152.733 247.463 152.879 247.369C153.64 247.35 154.403 247.381 155.164 247.356Z" fill="#2A71E9"/>
<path d="M150.168 249.883C150.173 249.879 150.181 249.872 150.185 249.868C150.181 249.872 150.173 249.879 150.168 249.883Z" fill="#286EE6"/>
<path d="M150.136 249.905C150.144 249.899 150.159 249.887 150.167 249.881C150.159 249.887 150.144 249.899 150.136 249.905Z" fill="#286EE6"/>
<path d="M150.122 249.921C150.127 249.917 150.135 249.911 150.139 249.907C150.135 249.911 150.127 249.917 150.122 249.921Z" fill="#286EE6"/>
<path d="M149.79 250.233C149.794 250.229 149.803 250.222 149.807 250.218C149.803 250.222 149.794 250.229 149.79 250.233Z" fill="#286EE6"/>
<path d="M149.774 250.243C149.779 250.239 149.787 250.233 149.791 250.229C149.787 250.233 149.779 250.239 149.774 250.243Z" fill="#286EE6"/>
</g>
</g>
<g filter="url(#filter2_d)">
<path d="M94.4966 95.7934C94.4966 92.8496 96.883 90.4631 99.8269 90.4631H206.433C209.377 90.4631 211.764 92.8496 211.764 95.7935V180.013C211.764 182.956 209.377 185.343 206.433 185.343H99.8269C96.883 185.343 94.4966 182.956 94.4966 180.013V95.7934Z" fill="white"/>
<path d="M138.815 118.055C138.815 116.878 139.77 115.923 140.948 115.923H164.401C165.579 115.923 166.533 116.878 166.533 118.055V141.509C166.533 142.686 165.579 143.641 164.401 143.641H140.948C139.77 143.641 138.815 142.686 138.815 141.509V118.055Z" fill="#F2F7FF"/>
<path d="M136.159 155.705C136.159 156.53 136.02 157.251 135.742 157.868C135.465 158.481 135.071 158.95 134.562 159.274C134.053 159.598 133.46 159.76 132.781 159.76C132.118 159.76 131.53 159.598 131.017 159.274C130.504 158.946 130.105 158.481 129.82 157.88C129.538 157.274 129.394 156.575 129.386 155.78V155.173C129.386 154.363 129.527 153.648 129.808 153.027C130.09 152.406 130.487 151.932 131 151.604C131.516 151.273 132.106 151.107 132.769 151.107C133.444 151.107 134.038 151.271 134.551 151.599C135.067 151.923 135.465 152.395 135.742 153.016C136.02 153.633 136.159 154.352 136.159 155.173V155.705ZM135.054 155.161C135.054 154.163 134.853 153.397 134.452 152.865C134.051 152.329 133.49 152.061 132.769 152.061C132.068 152.061 131.514 152.329 131.109 152.865C130.708 153.397 130.502 154.138 130.491 155.086V155.705C130.491 156.673 130.693 157.434 131.098 157.99C131.507 158.541 132.068 158.817 132.781 158.817C133.498 158.817 134.053 158.556 134.447 158.036C134.84 157.512 135.042 156.762 135.054 155.786V155.161Z" fill="#082B6B"/>
<path d="M138.669 153.386L138.704 154.172C139.182 153.571 139.806 153.27 140.578 153.27C141.9 153.27 142.567 154.016 142.579 155.508V159.644H141.509V155.503C141.505 155.052 141.401 154.718 141.196 154.502C140.996 154.286 140.682 154.178 140.254 154.178C139.907 154.178 139.602 154.271 139.34 154.456C139.078 154.641 138.873 154.884 138.727 155.185V159.644H137.657V153.386H138.669Z" fill="#082B6B"/>
<path d="M146.789 159.76C145.941 159.76 145.251 159.482 144.719 158.927C144.187 158.368 143.921 157.621 143.921 156.688V156.492C143.921 155.871 144.038 155.318 144.273 154.832C144.512 154.342 144.844 153.96 145.268 153.687C145.696 153.409 146.159 153.27 146.656 153.27C147.47 153.27 148.102 153.538 148.553 154.074C149.004 154.61 149.23 155.377 149.23 156.376V156.821H144.991C145.006 157.438 145.185 157.938 145.528 158.319C145.875 158.697 146.315 158.886 146.847 158.886C147.225 158.886 147.545 158.809 147.807 158.655C148.069 158.501 148.299 158.296 148.495 158.042L149.149 158.551C148.625 159.357 147.838 159.76 146.789 159.76ZM146.656 154.149C146.224 154.149 145.862 154.307 145.569 154.624C145.276 154.936 145.095 155.375 145.025 155.942H148.16V155.861C148.129 155.318 147.983 154.897 147.72 154.6C147.458 154.3 147.104 154.149 146.656 154.149Z" fill="#082B6B"/>
<path d="M150.641 159.644V151.223H153.018C153.751 151.223 154.399 151.385 154.962 151.709C155.525 152.032 155.958 152.493 156.263 153.091C156.572 153.688 156.728 154.375 156.732 155.15V155.688C156.732 156.482 156.577 157.178 156.269 157.776C155.964 158.373 155.527 158.832 154.956 159.152C154.389 159.472 153.728 159.636 152.972 159.644H150.641ZM151.752 152.137V158.736H152.92C153.776 158.736 154.441 158.47 154.915 157.938C155.394 157.406 155.633 156.648 155.633 155.665V155.173C155.633 154.217 155.407 153.474 154.956 152.946C154.509 152.414 153.872 152.144 153.047 152.137H151.752Z" fill="#082B6B"/>
<path d="M161.272 154.346C161.11 154.319 160.934 154.305 160.745 154.305C160.044 154.305 159.568 154.604 159.317 155.202V159.644H158.247V153.386H159.288L159.305 154.109C159.656 153.55 160.154 153.27 160.798 153.27C161.006 153.27 161.164 153.297 161.272 153.351V154.346Z" fill="#082B6B"/>
<path d="M163.423 159.644H162.353V153.386H163.423V159.644ZM162.267 151.726C162.267 151.552 162.319 151.406 162.423 151.286C162.531 151.167 162.689 151.107 162.897 151.107C163.105 151.107 163.263 151.167 163.371 151.286C163.479 151.406 163.533 151.552 163.533 151.726C163.533 151.899 163.479 152.044 163.371 152.16C163.263 152.275 163.105 152.333 162.897 152.333C162.689 152.333 162.531 152.275 162.423 152.16C162.319 152.044 162.267 151.899 162.267 151.726Z" fill="#082B6B"/>
<path d="M167.206 158.192L168.756 153.386H169.849L167.605 159.644H166.79L164.522 153.386H165.615L167.206 158.192Z" fill="#082B6B"/>
<path d="M173.395 159.76C172.546 159.76 171.856 159.482 171.324 158.927C170.792 158.368 170.526 157.621 170.526 156.688V156.492C170.526 155.871 170.643 155.318 170.879 154.832C171.118 154.342 171.449 153.96 171.873 153.687C172.301 153.409 172.764 153.27 173.262 153.27C174.075 153.27 174.708 153.538 175.159 154.074C175.61 154.61 175.835 155.377 175.835 156.376V156.821H171.596C171.611 157.438 171.791 157.938 172.134 158.319C172.481 158.697 172.92 158.886 173.452 158.886C173.83 158.886 174.15 158.809 174.413 158.655C174.675 158.501 174.904 158.296 175.101 158.042L175.754 158.551C175.23 159.357 174.443 159.76 173.395 159.76ZM173.262 154.149C172.83 154.149 172.467 154.307 172.174 154.624C171.881 154.936 171.7 155.375 171.631 155.942H174.765V155.861C174.735 155.318 174.588 154.897 174.326 154.6C174.064 154.3 173.709 154.149 173.262 154.149Z" fill="#082B6B"/>
<path d="M202.169 108.591C202.169 109.18 201.692 109.657 201.103 109.657C200.514 109.657 200.037 109.18 200.037 108.591C200.037 108.002 200.514 107.525 201.103 107.525C201.692 107.525 202.169 108.002 202.169 108.591Z" fill="#DCE3EB"/>
<path d="M198.438 108.591C198.438 109.18 197.961 109.657 197.372 109.657C196.783 109.657 196.306 109.18 196.306 108.591C196.306 108.002 196.783 107.525 197.372 107.525C197.961 107.525 198.438 108.002 198.438 108.591Z" fill="#DCE3EB"/>
<path d="M194.707 108.591C194.707 109.18 194.23 109.657 193.641 109.657C193.052 109.657 192.575 109.18 192.575 108.591C192.575 108.002 193.052 107.525 193.641 107.525C194.23 107.525 194.707 108.002 194.707 108.591Z" fill="#DCE3EB"/>
<path d="M155.639 130.345L159.078 127.062C158.364 124.282 155.526 122.606 152.74 123.319C151.485 123.64 150.395 124.417 149.683 125.496C149.737 125.495 155.639 130.345 155.639 130.345Z" fill="#0364B8"/>
<path d="M151.925 126.117L151.925 126.118C151.268 125.711 150.51 125.497 149.737 125.498C149.719 125.498 149.701 125.499 149.683 125.499C147.384 125.528 145.542 127.411 145.571 129.706C145.581 130.538 145.842 131.348 146.319 132.031L151.472 131.387L155.424 128.208L151.925 126.117Z" fill="#0078D4"/>
<path d="M159.078 127.064C159.003 127.059 158.927 127.055 158.85 127.055C158.388 127.055 157.932 127.149 157.508 127.332L157.508 127.331L155.424 128.207L157.722 131.039L161.83 132.036C162.717 130.394 162.101 128.345 160.455 127.46C160.03 127.232 159.56 127.097 159.078 127.064V127.064H159.078Z" fill="#1490DF"/>
<path d="M146.318 132.031C147.096 133.147 148.373 133.812 149.735 133.812H158.849C160.094 133.812 161.238 133.13 161.829 132.037L155.422 128.208L146.318 132.031Z" fill="#28A8EA"/>
</g>
<defs>
<filter id="filter0_d" x="140.361" y="61.4987" width="305.858" height="283.47" filterUnits="userSpaceOnUse" color-interpolation-filters="sRGB">
<feFlood flood-opacity="0" result="BackgroundImageFix"/>
<feColorMatrix in="SourceAlpha" type="matrix" values="0 0 0 0 0 0 0 0 0 0 0 0 0 0 0 0 0 0 127 0"/>
<feOffset dy="4.13536"/>
<feGaussianBlur stdDeviation="47.1476"/>
<feColorMatrix type="matrix" values="0 0 0 0 0 0 0 0 0 0 0 0 0 0 0 0 0 0 0.05 0"/>
<feBlend mode="normal" in2="BackgroundImageFix" result="effect1_dropShadow"/>
<feBlend mode="normal" in="SourceGraphic" in2="effect1_dropShadow" result="shape"/>
</filter>
<filter id="filter1_d" x="0.201347" y="116.774" width="305.858" height="283.47" filterUnits="userSpaceOnUse" color-interpolation-filters="sRGB">
<feFlood flood-opacity="0" result="BackgroundImageFix"/>
<feColorMatrix in="SourceAlpha" type="matrix" values="0 0 0 0 0 0 0 0 0 0 0 0 0 0 0 0 0 0 127 0"/>
<feOffset dy="4.13536"/>
<feGaussianBlur stdDeviation="47.1476"/>
<feColorMatrix type="matrix" values="0 0 0 0 0 0 0 0 0 0 0 0 0 0 0 0 0 0 0.05 0"/>
<feBlend mode="normal" in2="BackgroundImageFix" result="effect1_dropShadow"/>
<feBlend mode="normal" in="SourceGraphic" in2="effect1_dropShadow" result="shape"/>
</filter>
<filter id="filter2_d" x="0.201286" y="0.303199" width="305.858" height="283.47" filterUnits="userSpaceOnUse" color-interpolation-filters="sRGB">
<feFlood flood-opacity="0" result="BackgroundImageFix"/>
<feColorMatrix in="SourceAlpha" type="matrix" values="0 0 0 0 0 0 0 0 0 0 0 0 0 0 0 0 0 0 127 0"/>
<feOffset dy="4.13536"/>
<feGaussianBlur stdDeviation="47.1476"/>
<feColorMatrix type="matrix" values="0 0 0 0 0 0 0 0 0 0 0 0 0 0 0 0 0 0 0.05 0"/>
<feBlend mode="normal" in2="BackgroundImageFix" result="effect1_dropShadow"/>
<feBlend mode="normal" in="SourceGraphic" in2="effect1_dropShadow" result="shape"/>
</filter>
<clipPath id="clip0">
<rect width="13.7522" height="12.7928" fill="white" transform="translate(285.916 183.738)"/>
</clipPath>
<clipPath id="clip1">
<rect width="14.9249" height="14.9249" fill="white" transform="translate(145.416 237.928)"/>
</clipPath>
</defs>
</svg>
