<svg width="510" height="423" viewBox="0 0 510 423" fill="none" xmlns="http://www.w3.org/2000/svg">
<g filter="url(#filter0_d)">
<g filter="url(#filter1_d)">
<path d="M124.359 238.425C124.359 237.512 125.533 236.772 126.98 236.772H220.465C221.913 236.772 223.086 237.512 223.086 238.425V265.971C223.086 266.884 221.913 267.624 220.465 267.624H126.98C125.533 267.624 124.359 266.884 124.359 265.971V238.425Z" fill="white"/>
</g>
<path d="M213.367 253.804C213.056 253.804 212.803 253.551 212.803 253.239C212.803 252.928 213.056 252.675 213.367 252.675C213.679 252.675 213.932 252.928 213.932 253.239C213.932 253.551 213.679 253.804 213.367 253.804Z" fill="#DCE3EB"/>
<path d="M213.367 251.829C213.056 251.829 212.803 251.577 212.803 251.265C212.803 250.953 213.056 250.701 213.367 250.701C213.679 250.701 213.932 250.953 213.932 251.265C213.932 251.577 213.679 251.829 213.367 251.829Z" fill="#DCE3EB"/>
<path d="M213.367 249.855C213.055 249.855 212.803 249.603 212.803 249.291C212.803 248.979 213.055 248.727 213.367 248.727C213.679 248.727 213.931 248.979 213.931 249.291C213.931 249.603 213.679 249.855 213.367 249.855Z" fill="#DCE3EB"/>
<path d="M156.01 250.752H155.558V247.321H156.01V250.752Z" fill="black"/>
<path d="M157.181 248.203L157.193 248.485C157.38 248.266 157.632 248.156 157.95 248.156C158.306 248.156 158.549 248.292 158.678 248.566C158.762 248.443 158.872 248.344 159.007 248.269C159.144 248.193 159.305 248.156 159.491 248.156C160.05 248.156 160.334 248.452 160.343 249.044V250.752H159.908V249.07C159.908 248.888 159.866 248.752 159.783 248.662C159.699 248.571 159.56 248.526 159.363 248.526C159.201 248.526 159.067 248.574 158.96 248.672C158.854 248.767 158.791 248.897 158.774 249.06V250.752H158.336V249.082C158.336 248.711 158.155 248.526 157.792 248.526C157.506 248.526 157.31 248.647 157.205 248.891V250.752H156.769V248.203H157.181Z" fill="black"/>
<path d="M162.577 250.752C162.552 250.702 162.532 250.612 162.516 250.484C162.313 250.694 162.071 250.799 161.79 250.799C161.539 250.799 161.332 250.729 161.171 250.587C161.01 250.444 160.93 250.264 160.93 250.045C160.93 249.78 161.031 249.574 161.232 249.428C161.434 249.28 161.719 249.206 162.085 249.206H162.509V249.006C162.509 248.854 162.463 248.733 162.372 248.643C162.281 248.552 162.147 248.507 161.969 248.507C161.814 248.507 161.683 248.546 161.578 248.624C161.473 248.703 161.42 248.798 161.42 248.91H160.982C160.982 248.782 161.027 248.66 161.116 248.542C161.207 248.423 161.33 248.328 161.484 248.259C161.639 248.19 161.81 248.156 161.995 248.156C162.289 248.156 162.519 248.229 162.686 248.377C162.852 248.523 162.939 248.725 162.945 248.983V250.156C162.945 250.39 162.975 250.576 163.034 250.715V250.752H162.577ZM161.854 250.42C161.991 250.42 162.12 250.385 162.243 250.314C162.365 250.243 162.454 250.151 162.509 250.038V249.515H162.167C161.633 249.515 161.366 249.671 161.366 249.984C161.366 250.121 161.412 250.228 161.503 250.305C161.594 250.381 161.711 250.42 161.854 250.42Z" fill="black"/>
<path d="M163.524 249.456C163.524 249.059 163.616 248.743 163.8 248.509C163.984 248.273 164.227 248.156 164.531 248.156C164.842 248.156 165.084 248.266 165.259 248.485L165.28 248.203H165.678V250.691C165.678 251.021 165.58 251.281 165.384 251.471C165.189 251.661 164.926 251.756 164.597 251.756C164.413 251.756 164.233 251.717 164.057 251.638C163.881 251.56 163.747 251.452 163.654 251.315L163.88 251.054C164.067 251.285 164.296 251.4 164.566 251.4C164.778 251.4 164.943 251.34 165.061 251.221C165.18 251.102 165.24 250.934 165.24 250.717V250.498C165.065 250.699 164.827 250.799 164.526 250.799C164.227 250.799 163.985 250.679 163.8 250.439C163.616 250.198 163.524 249.871 163.524 249.456ZM163.963 249.506C163.963 249.793 164.022 250.019 164.139 250.184C164.257 250.348 164.422 250.429 164.634 250.429C164.909 250.429 165.111 250.305 165.24 250.055V248.891C165.106 248.647 164.906 248.526 164.639 248.526C164.427 248.526 164.261 248.608 164.142 248.773C164.022 248.938 163.963 249.182 163.963 249.506Z" fill="black"/>
<path d="M167.396 250.799C167.05 250.799 166.769 250.686 166.552 250.46C166.335 250.232 166.227 249.928 166.227 249.548V249.468C166.227 249.215 166.275 248.99 166.371 248.792C166.468 248.592 166.603 248.437 166.776 248.325C166.95 248.212 167.139 248.156 167.342 248.156C167.673 248.156 167.931 248.265 168.114 248.483C168.298 248.701 168.39 249.014 168.39 249.421V249.602H166.663C166.669 249.854 166.742 250.057 166.882 250.213C167.024 250.367 167.203 250.444 167.419 250.444C167.573 250.444 167.704 250.412 167.81 250.349C167.917 250.286 168.011 250.203 168.091 250.1L168.357 250.307C168.144 250.635 167.823 250.799 167.396 250.799ZM167.342 248.514C167.166 248.514 167.018 248.578 166.899 248.707C166.779 248.834 166.705 249.013 166.677 249.244H167.954V249.211C167.942 248.99 167.882 248.818 167.775 248.698C167.668 248.575 167.524 248.514 167.342 248.514Z" fill="black"/>
<path d="M170.381 250.076C170.381 249.958 170.336 249.867 170.247 249.803C170.159 249.737 170.004 249.68 169.783 249.633C169.563 249.586 169.388 249.529 169.257 249.463C169.128 249.397 169.033 249.319 168.97 249.228C168.909 249.137 168.878 249.028 168.878 248.903C168.878 248.694 168.966 248.517 169.142 248.372C169.319 248.228 169.545 248.156 169.82 248.156C170.109 248.156 170.343 248.23 170.523 248.379C170.703 248.529 170.794 248.72 170.794 248.952H170.355C170.355 248.833 170.304 248.73 170.202 248.643C170.102 248.557 169.974 248.514 169.82 248.514C169.662 248.514 169.538 248.548 169.448 248.617C169.359 248.687 169.314 248.777 169.314 248.888C169.314 248.994 169.355 249.073 169.439 249.126C169.522 249.18 169.672 249.231 169.889 249.28C170.107 249.328 170.284 249.386 170.419 249.454C170.554 249.521 170.654 249.603 170.718 249.699C170.784 249.793 170.817 249.909 170.817 250.045C170.817 250.273 170.726 250.456 170.544 250.594C170.362 250.731 170.125 250.799 169.835 250.799C169.63 250.799 169.45 250.763 169.293 250.691C169.136 250.619 169.012 250.518 168.923 250.389C168.835 250.259 168.791 250.118 168.791 249.968H169.227C169.234 250.114 169.293 250.23 169.401 250.316C169.511 250.401 169.655 250.444 169.835 250.444C169.999 250.444 170.131 250.411 170.23 250.345C170.331 250.277 170.381 250.187 170.381 250.076Z" fill="black"/>
<path d="M156.068 254.374C156.292 254.374 156.468 254.43 156.596 254.541C156.725 254.652 156.789 254.803 156.789 254.996C156.789 255.216 156.719 255.389 156.579 255.514C156.439 255.639 156.246 255.701 156 255.701C155.761 255.701 155.578 255.663 155.452 255.587V255.354C155.52 255.398 155.604 255.432 155.705 255.457C155.806 255.481 155.905 255.494 156.003 255.494C156.173 255.494 156.306 255.453 156.4 255.373C156.495 255.292 156.542 255.176 156.542 255.024C156.542 254.727 156.361 254.579 155.997 254.579C155.905 254.579 155.782 254.593 155.628 254.621L155.503 254.541L155.583 253.547H156.64V253.769H155.789L155.735 254.407C155.847 254.385 155.958 254.374 156.068 254.374Z" fill="#C1C1C1"/>
<path d="M157.471 255.326L157.493 255.36C157.468 255.457 157.432 255.569 157.384 255.697C157.337 255.826 157.287 255.946 157.236 256.056H157.054C157.08 255.955 157.109 255.831 157.14 255.683C157.172 255.534 157.194 255.415 157.207 255.326H157.471Z" fill="#C1C1C1"/>
<path d="M158.502 254.374C158.726 254.374 158.902 254.43 159.03 254.541C159.159 254.652 159.223 254.803 159.223 254.996C159.223 255.216 159.153 255.389 159.012 255.514C158.873 255.639 158.68 255.701 158.434 255.701C158.194 255.701 158.012 255.663 157.886 255.587V255.354C157.954 255.398 158.038 255.432 158.139 255.457C158.239 255.481 158.339 255.494 158.437 255.494C158.607 255.494 158.74 255.453 158.834 255.373C158.929 255.292 158.976 255.176 158.976 255.024C158.976 254.727 158.794 254.579 158.431 254.579C158.339 254.579 158.216 254.593 158.062 254.621L157.937 254.541L158.017 253.547H159.074V253.769H158.223L158.169 254.407C158.281 254.385 158.392 254.374 158.502 254.374Z" fill="#C1C1C1"/>
<path d="M161.397 254.559H162.119V255.592C162.007 255.628 161.893 255.655 161.776 255.674C161.66 255.692 161.525 255.701 161.372 255.701C161.05 255.701 160.8 255.606 160.62 255.415C160.441 255.223 160.352 254.955 160.352 254.61C160.352 254.389 160.396 254.195 160.484 254.029C160.573 253.863 160.701 253.736 160.868 253.649C161.034 253.56 161.23 253.516 161.454 253.516C161.68 253.516 161.892 253.558 162.087 253.641L161.991 253.859C161.8 253.778 161.615 253.737 161.438 253.737C161.179 253.737 160.977 253.814 160.831 253.968C160.686 254.122 160.613 254.336 160.613 254.61C160.613 254.896 160.683 255.114 160.823 255.262C160.963 255.411 161.169 255.485 161.44 255.485C161.588 255.485 161.732 255.468 161.872 255.434V254.78H161.397V254.559Z" fill="#C1C1C1"/>
<path d="M162.631 253.547H163.232C163.514 253.547 163.718 253.589 163.844 253.673C163.97 253.758 164.033 253.891 164.033 254.073C164.033 254.199 163.997 254.303 163.927 254.386C163.857 254.467 163.755 254.52 163.62 254.544V254.559C163.943 254.614 164.104 254.784 164.104 255.068C164.104 255.257 164.04 255.406 163.911 255.512C163.783 255.619 163.603 255.672 163.373 255.672H162.631V253.547ZM162.878 254.457H163.285C163.46 254.457 163.585 254.43 163.662 254.375C163.739 254.32 163.777 254.228 163.777 254.098C163.777 253.979 163.734 253.893 163.649 253.84C163.564 253.787 163.428 253.76 163.242 253.76H162.878V254.457ZM162.878 254.666V255.462H163.322C163.493 255.462 163.622 255.429 163.709 255.363C163.796 255.296 163.839 255.192 163.839 255.05C163.839 254.918 163.795 254.821 163.706 254.759C163.617 254.697 163.483 254.666 163.301 254.666H162.878Z" fill="#C1C1C1"/>
<path d="M165.333 253.547L164.54 255.672H164.299L165.091 253.547H165.333Z" fill="#C1C1C1"/>
<path d="M166.906 255.672H165.508V255.464L166.068 254.902C166.239 254.729 166.351 254.606 166.406 254.532C166.46 254.459 166.501 254.387 166.528 254.317C166.555 254.248 166.568 254.172 166.568 254.092C166.568 253.979 166.534 253.889 166.465 253.823C166.396 253.756 166.301 253.723 166.179 253.723C166.091 253.723 166.007 253.737 165.927 253.766C165.849 253.795 165.761 253.848 165.664 253.925L165.536 253.76C165.732 253.598 165.945 253.516 166.176 253.516C166.375 253.516 166.532 253.568 166.645 253.67C166.759 253.772 166.816 253.909 166.816 254.082C166.816 254.217 166.778 254.35 166.702 254.482C166.627 254.613 166.485 254.78 166.278 254.982L165.812 255.437V255.448H166.906V255.672Z" fill="#C1C1C1"/>
<path d="M168.621 254.607C168.621 254.974 168.563 255.248 168.447 255.43C168.331 255.611 168.155 255.701 167.916 255.701C167.687 255.701 167.513 255.609 167.394 255.424C167.275 255.238 167.215 254.965 167.215 254.607C167.215 254.236 167.273 253.962 167.388 253.782C167.504 253.603 167.68 253.513 167.916 253.513C168.147 253.513 168.322 253.607 168.441 253.794C168.561 253.981 168.621 254.252 168.621 254.607ZM167.46 254.607C167.46 254.916 167.496 255.141 167.569 255.283C167.641 255.423 167.757 255.494 167.916 255.494C168.077 255.494 168.193 255.422 168.265 255.28C168.338 255.136 168.374 254.912 168.374 254.607C168.374 254.301 168.338 254.078 168.265 253.936C168.193 253.794 168.077 253.723 167.916 253.723C167.757 253.723 167.641 253.793 167.569 253.933C167.496 254.073 167.46 254.297 167.46 254.607Z" fill="#C1C1C1"/>
<path d="M170.772 254.559H171.494V255.592C171.382 255.628 171.267 255.655 171.151 255.674C171.035 255.692 170.9 255.701 170.747 255.701C170.425 255.701 170.175 255.606 169.995 255.415C169.816 255.223 169.726 254.955 169.726 254.61C169.726 254.389 169.77 254.195 169.859 254.029C169.948 253.863 170.076 253.736 170.242 253.649C170.409 253.56 170.604 253.516 170.828 253.516C171.055 253.516 171.266 253.558 171.462 253.641L171.366 253.859C171.174 253.778 170.99 253.737 170.812 253.737C170.553 253.737 170.351 253.814 170.206 253.968C170.061 254.122 169.988 254.336 169.988 254.61C169.988 254.896 170.058 255.114 170.197 255.262C170.338 255.411 170.544 255.485 170.815 255.485C170.963 255.485 171.106 255.468 171.247 255.434V254.78H170.772V254.559Z" fill="#C1C1C1"/>
<path d="M172.006 253.547H172.606C172.888 253.547 173.092 253.589 173.218 253.673C173.344 253.758 173.407 253.891 173.407 254.073C173.407 254.199 173.372 254.303 173.301 254.386C173.232 254.467 173.129 254.52 172.995 254.544V254.559C173.317 254.614 173.479 254.784 173.479 255.068C173.479 255.257 173.414 255.406 173.285 255.512C173.157 255.619 172.978 255.672 172.747 255.672H172.006V253.547ZM172.253 254.457H172.66C172.835 254.457 172.96 254.43 173.037 254.375C173.113 254.32 173.152 254.228 173.152 254.098C173.152 253.979 173.109 253.893 173.024 253.84C172.938 253.787 172.803 253.76 172.617 253.76H172.253V254.457ZM172.253 254.666V255.462H172.697C172.868 255.462 172.997 255.429 173.083 255.363C173.17 255.296 173.214 255.192 173.214 255.05C173.214 254.918 173.17 254.821 173.08 254.759C172.992 254.697 172.857 254.666 172.676 254.666H172.253Z" fill="#C1C1C1"/>
<path d="M135.674 246.553C135.674 245.93 136.18 245.424 136.803 245.424H147.018C147.642 245.424 148.147 245.93 148.147 246.553V256.768C148.147 257.392 147.642 257.897 147.018 257.897H136.803C136.18 257.897 135.674 257.392 135.674 256.768V246.553Z" fill="#5B95FF"/>
<path fill-rule="evenodd" clip-rule="evenodd" d="M141.607 247.902C141.379 247.902 141.194 248.086 141.194 248.314V252.767C141.194 252.994 141.379 253.178 141.607 253.178H146.069C146.297 253.178 146.482 252.994 146.482 252.767V248.314C146.482 248.086 146.297 247.902 146.069 247.902H141.607ZM140.744 248.314C140.744 247.838 141.13 247.453 141.607 247.453H146.069C146.546 247.453 146.932 247.838 146.932 248.314V252.767C146.932 253.242 146.546 253.627 146.069 253.627H141.607C141.13 253.627 140.744 253.242 140.744 252.767V248.314Z" fill="white"/>
<path d="M142.722 249.905C142.985 249.905 143.199 249.691 143.199 249.428C143.199 249.164 142.985 248.95 142.722 248.95C142.458 248.95 142.244 249.164 142.244 249.428C142.244 249.691 142.458 249.905 142.722 249.905Z" fill="white"/>
<path fill-rule="evenodd" clip-rule="evenodd" d="M144.954 249.747C145.042 249.659 145.184 249.659 145.272 249.747L146.866 251.337C146.954 251.425 146.954 251.567 146.866 251.654C146.778 251.742 146.635 251.742 146.548 251.654L145.113 250.223L141.766 253.563C141.678 253.651 141.535 253.651 141.447 253.563C141.36 253.475 141.36 253.333 141.447 253.245L144.954 249.747Z" fill="white"/>
</g>
<g filter="url(#filter2_d)">
<g filter="url(#filter3_d)">
<path d="M179.993 94.5862C179.993 92.3925 181.772 90.6141 183.965 90.6141H304.45C306.644 90.6141 308.422 92.3925 308.422 94.5862V136.972C308.422 139.166 306.644 140.944 304.45 140.944H183.965C181.772 140.944 179.993 139.166 179.993 136.972V94.5862Z" fill="#FEFEFE"/>
</g>
<path d="M191.909 105.181C191.909 103.718 193.095 102.533 194.557 102.533H217.03C218.492 102.533 219.678 103.718 219.678 105.181V127.653C219.678 129.115 218.492 130.301 217.03 130.301H194.557C193.095 130.301 191.909 129.115 191.909 127.653V105.181Z" fill="#F2F7FF"/>
<path d="M235.605 114.671C235.605 115.937 235.254 116.906 234.551 117.578C233.848 118.246 232.835 118.58 231.513 118.58H229.368V110.91H231.739C232.959 110.91 233.909 111.239 234.587 111.896C235.266 112.554 235.605 113.479 235.605 114.671ZM234.283 114.713C234.283 112.877 233.425 111.959 231.707 111.959H230.621V117.525H231.513C233.36 117.525 234.283 116.588 234.283 114.713Z" fill="black"/>
<path d="M240.069 112.673C240.318 112.673 240.522 112.69 240.683 112.725L240.563 113.874C240.388 113.832 240.206 113.811 240.017 113.811C239.524 113.811 239.123 113.972 238.816 114.294C238.511 114.616 238.359 115.033 238.359 115.548V118.58H237.126V112.778H238.092L238.254 113.801H238.317C238.51 113.454 238.76 113.18 239.067 112.977C239.379 112.774 239.713 112.673 240.069 112.673Z" fill="black"/>
<path d="M246.91 115.668C246.91 116.616 246.667 117.356 246.181 117.887C245.695 118.419 245.018 118.685 244.151 118.685C243.609 118.685 243.13 118.562 242.713 118.317C242.297 118.073 241.977 117.721 241.753 117.263C241.53 116.805 241.418 116.273 241.418 115.668C241.418 114.727 241.659 113.993 242.142 113.465C242.624 112.937 243.304 112.673 244.182 112.673C245.022 112.673 245.686 112.944 246.176 113.486C246.665 114.024 246.91 114.752 246.91 115.668ZM242.687 115.668C242.687 117.008 243.182 117.677 244.172 117.677C245.151 117.677 245.641 117.008 245.641 115.668C245.641 114.343 245.148 113.68 244.161 113.68C243.644 113.68 243.268 113.851 243.033 114.194C242.803 114.537 242.687 115.028 242.687 115.668Z" fill="black"/>
<path d="M251.275 118.685C250.54 118.685 249.97 118.421 249.565 117.892H249.491C249.54 118.382 249.565 118.679 249.565 118.784V121.161H248.332V112.778H249.329C249.357 112.886 249.414 113.145 249.502 113.554H249.565C249.949 112.967 250.526 112.673 251.296 112.673C252.02 112.673 252.583 112.935 252.985 113.46C253.391 113.984 253.594 114.72 253.594 115.668C253.594 116.616 253.387 117.356 252.975 117.887C252.565 118.419 251.999 118.685 251.275 118.685ZM250.976 113.68C250.486 113.68 250.128 113.823 249.9 114.11C249.677 114.397 249.565 114.855 249.565 115.485V115.668C249.565 116.375 249.677 116.887 249.9 117.205C250.124 117.52 250.49 117.677 250.997 117.677C251.423 117.677 251.752 117.503 251.983 117.153C252.214 116.803 252.329 116.305 252.329 115.658C252.329 115.007 252.214 114.516 251.983 114.184C251.756 113.848 251.42 113.68 250.976 113.68Z" fill="black"/>
<path d="M257.99 112.673C258.714 112.673 259.277 112.935 259.679 113.46C260.085 113.984 260.287 114.72 260.287 115.668C260.287 116.619 260.083 117.361 259.674 117.892C259.264 118.421 258.696 118.685 257.969 118.685C257.234 118.685 256.664 118.421 256.259 117.892H256.175L255.949 118.58H255.026V110.417H256.259V112.358C256.259 112.501 256.252 112.715 256.238 112.998C256.224 113.281 256.213 113.461 256.206 113.538H256.259C256.65 112.961 257.227 112.673 257.99 112.673ZM257.67 113.68C257.173 113.68 256.815 113.827 256.594 114.121C256.377 114.411 256.266 114.899 256.259 115.584V115.668C256.259 116.375 256.37 116.887 256.594 117.205C256.818 117.52 257.184 117.677 257.691 117.677C258.128 117.677 258.458 117.504 258.682 117.158C258.909 116.812 259.023 116.312 259.023 115.658C259.023 114.339 258.572 113.68 257.67 113.68Z" fill="black"/>
<path d="M266.866 115.668C266.866 116.616 266.623 117.356 266.137 117.887C265.651 118.419 264.974 118.685 264.106 118.685C263.564 118.685 263.085 118.562 262.669 118.317C262.253 118.073 261.933 117.721 261.709 117.263C261.485 116.805 261.373 116.273 261.373 115.668C261.373 114.727 261.615 113.993 262.097 113.465C262.58 112.937 263.26 112.673 264.138 112.673C264.977 112.673 265.642 112.944 266.131 113.486C266.621 114.024 266.866 114.752 266.866 115.668ZM262.643 115.668C262.643 117.008 263.138 117.677 264.127 117.677C265.107 117.677 265.596 117.008 265.596 115.668C265.596 114.343 265.103 113.68 264.117 113.68C263.599 113.68 263.223 113.851 262.989 114.194C262.758 114.537 262.643 115.028 262.643 115.668Z" fill="black"/>
<path d="M269.578 115.616L267.632 112.778H269.038L270.36 114.808L271.692 112.778H273.088L271.136 115.616L273.187 118.58H271.792L270.36 116.408L268.933 118.58H267.537L269.578 115.616Z" fill="black"/>
<g clip-path="url(#clip0)">
<path d="M202.667 109.152L198.529 111.833L201.409 114.15L205.546 111.568L202.667 109.152ZM198.529 116.401L202.667 119.115L205.546 116.699L201.409 114.15L198.529 116.401ZM205.546 116.699L208.459 119.115L212.564 116.434L209.717 114.15L205.546 116.699ZM212.564 111.833L208.459 109.152L205.546 111.568L209.717 114.15L212.564 111.833ZM205.579 117.229L202.667 119.645L201.442 118.817V119.744L205.579 122.227L209.717 119.744V118.817L208.459 119.645L205.579 117.229Z" fill="#007EE5"/>
</g>
</g>
<g filter="url(#filter4_d)">
<g filter="url(#filter5_d)">
<path d="M95.1275 175.692C95.1275 174.533 96.8235 173.594 98.9155 173.594H234.023C236.115 173.594 237.811 174.533 237.811 175.692V210.664C237.811 211.822 236.115 212.762 234.023 212.762H98.9156C96.8235 212.762 95.1275 211.822 95.1275 210.664V175.692Z" fill="white"/>
</g>
<path d="M224.517 195.757C224.134 195.757 223.824 195.447 223.824 195.064C223.824 194.682 224.134 194.372 224.517 194.372C224.899 194.372 225.209 194.682 225.209 195.064C225.209 195.447 224.899 195.757 224.517 195.757Z" fill="#DCE3EB"/>
<path d="M224.517 193.333C224.134 193.333 223.824 193.023 223.824 192.641C223.824 192.258 224.134 191.948 224.517 191.948C224.899 191.948 225.209 192.258 225.209 192.641C225.209 193.023 224.899 193.333 224.517 193.333Z" fill="#DCE3EB"/>
<path d="M224.516 190.91C224.133 190.91 223.823 190.6 223.823 190.218C223.823 189.835 224.133 189.525 224.516 189.525C224.898 189.525 225.209 189.835 225.209 190.218C225.209 190.6 224.898 190.91 224.516 190.91Z" fill="#DCE3EB"/>
<path d="M134.845 191.74V187.529H136.034C136.4 187.529 136.724 187.61 137.006 187.772C137.287 187.934 137.504 188.164 137.656 188.463C137.811 188.762 137.889 189.105 137.891 189.493V189.762C137.891 190.159 137.814 190.507 137.659 190.806C137.507 191.105 137.288 191.334 137.003 191.494C136.719 191.654 136.389 191.736 136.011 191.74H134.845ZM135.4 187.986V191.286H135.985C136.413 191.286 136.745 191.153 136.982 190.887C137.222 190.621 137.341 190.242 137.341 189.75V189.504C137.341 189.026 137.228 188.655 137.003 188.391C136.779 188.124 136.461 187.989 136.048 187.986H135.4Z" fill="black"/>
<path d="M138.507 190.146C138.507 189.84 138.567 189.564 138.686 189.319C138.808 189.074 138.975 188.885 139.189 188.752C139.405 188.619 139.651 188.552 139.927 188.552C140.353 188.552 140.697 188.7 140.96 188.995C141.224 189.29 141.356 189.682 141.356 190.172V190.21C141.356 190.515 141.297 190.788 141.179 191.031C141.064 191.272 140.897 191.46 140.679 191.595C140.463 191.73 140.214 191.798 139.933 191.798C139.508 191.798 139.164 191.65 138.9 191.355C138.638 191.06 138.507 190.67 138.507 190.184V190.146ZM139.045 190.21C139.045 190.557 139.125 190.836 139.285 191.046C139.447 191.256 139.663 191.361 139.933 191.361C140.205 191.361 140.421 191.255 140.581 191.043C140.741 190.829 140.821 190.53 140.821 190.146C140.821 189.803 140.739 189.525 140.575 189.313C140.413 189.099 140.197 188.992 139.927 188.992C139.663 188.992 139.45 189.097 139.288 189.307C139.126 189.518 139.045 189.818 139.045 190.21Z" fill="black"/>
<path d="M143.282 191.361C143.473 191.361 143.64 191.303 143.783 191.187C143.925 191.072 144.004 190.927 144.02 190.754H144.526C144.516 190.933 144.455 191.104 144.341 191.266C144.227 191.428 144.075 191.557 143.884 191.653C143.695 191.75 143.494 191.798 143.282 191.798C142.856 191.798 142.517 191.656 142.264 191.373C142.013 191.087 141.888 190.698 141.888 190.204V190.114C141.888 189.81 141.944 189.539 142.056 189.302C142.168 189.064 142.328 188.88 142.536 188.749C142.746 188.618 142.994 188.552 143.279 188.552C143.63 188.552 143.921 188.658 144.153 188.868C144.386 189.078 144.51 189.351 144.526 189.686H144.02C144.004 189.484 143.927 189.318 143.788 189.189C143.651 189.058 143.482 188.992 143.279 188.992C143.007 188.992 142.796 189.09 142.646 189.287C142.497 189.482 142.423 189.764 142.423 190.135V190.236C142.423 190.596 142.497 190.874 142.646 191.069C142.794 191.264 143.006 191.361 143.282 191.361Z" fill="black"/>
<path d="M147.06 191.43C146.851 191.675 146.546 191.798 146.143 191.798C145.809 191.798 145.555 191.701 145.379 191.509C145.206 191.314 145.118 191.026 145.116 190.647V188.61H145.651V190.632C145.651 191.107 145.844 191.344 146.23 191.344C146.638 191.344 146.91 191.191 147.045 190.887V188.61H147.58V191.74H147.071L147.06 191.43Z" fill="black"/>
<path d="M148.899 188.61L148.914 188.957C149.143 188.687 149.453 188.552 149.842 188.552C150.28 188.552 150.578 188.72 150.736 189.056C150.84 188.905 150.975 188.784 151.141 188.691C151.309 188.599 151.506 188.552 151.734 188.552C152.42 188.552 152.769 188.916 152.781 189.643V191.74H152.246V189.675C152.246 189.451 152.195 189.284 152.092 189.174C151.99 189.063 151.819 189.007 151.578 189.007C151.379 189.007 151.214 189.066 151.083 189.186C150.952 189.304 150.876 189.463 150.855 189.663V191.74H150.317V189.689C150.317 189.234 150.094 189.007 149.648 189.007C149.297 189.007 149.057 189.156 148.928 189.455V191.74H148.393V188.61H148.899Z" fill="black"/>
<path d="M154.889 191.798C154.465 191.798 154.12 191.659 153.854 191.381C153.588 191.102 153.455 190.729 153.455 190.262V190.164C153.455 189.853 153.514 189.576 153.631 189.333C153.751 189.089 153.917 188.898 154.129 188.761C154.343 188.622 154.574 188.552 154.823 188.552C155.23 188.552 155.546 188.687 155.772 188.955C155.997 189.223 156.11 189.606 156.11 190.106V190.328H153.99C153.998 190.637 154.087 190.887 154.259 191.078C154.432 191.267 154.652 191.361 154.918 191.361C155.107 191.361 155.267 191.322 155.399 191.245C155.53 191.168 155.644 191.066 155.743 190.939L156.07 191.193C155.807 191.596 155.414 191.798 154.889 191.798ZM154.823 188.992C154.607 188.992 154.426 189.071 154.279 189.229C154.133 189.386 154.042 189.605 154.007 189.889H155.575V189.848C155.56 189.576 155.486 189.366 155.355 189.218C155.224 189.067 155.047 188.992 154.823 188.992Z" fill="black"/>
<path d="M157.238 188.61L157.255 189.004C157.495 188.703 157.807 188.552 158.193 188.552C158.854 188.552 159.188 188.926 159.193 189.672V191.74H158.658V189.669C158.656 189.443 158.604 189.277 158.502 189.169C158.402 189.061 158.245 189.007 158.031 189.007C157.857 189.007 157.705 189.053 157.574 189.145C157.443 189.238 157.34 189.359 157.267 189.51V191.74H156.732V188.61H157.238Z" fill="black"/>
<path d="M160.726 187.853V188.61H161.311V189.024H160.726V190.965C160.726 191.09 160.752 191.185 160.804 191.248C160.857 191.31 160.945 191.341 161.071 191.341C161.132 191.341 161.217 191.329 161.325 191.306V191.74C161.184 191.779 161.047 191.798 160.914 191.798C160.675 191.798 160.495 191.725 160.374 191.581C160.252 191.436 160.191 191.231 160.191 190.965V189.024H159.621V188.61H160.191V187.853H160.726Z" fill="black"/>
<path d="M136.029 195.515C136.029 195.677 135.983 195.811 135.892 195.914C135.801 196.017 135.672 196.087 135.505 196.121V196.135C135.709 196.161 135.861 196.226 135.96 196.331C136.058 196.435 136.108 196.572 136.108 196.742C136.108 196.985 136.024 197.172 135.855 197.303C135.687 197.433 135.447 197.498 135.137 197.498C135.002 197.498 134.878 197.488 134.766 197.467C134.654 197.447 134.546 197.412 134.44 197.361V197.085C134.55 197.14 134.668 197.182 134.792 197.211C134.917 197.239 135.036 197.253 135.147 197.253C135.588 197.253 135.808 197.08 135.808 196.735C135.808 196.426 135.565 196.271 135.079 196.271H134.828V196.022H135.083C135.282 196.022 135.439 195.978 135.555 195.891C135.671 195.803 135.73 195.681 135.73 195.525C135.73 195.401 135.687 195.303 135.601 195.232C135.516 195.162 135.4 195.126 135.254 195.126C135.142 195.126 135.037 195.141 134.938 195.171C134.839 195.202 134.727 195.257 134.6 195.339L134.454 195.144C134.558 195.061 134.679 194.997 134.815 194.95C134.952 194.902 135.096 194.879 135.247 194.879C135.494 194.879 135.687 194.936 135.824 195.049C135.961 195.162 136.029 195.317 136.029 195.515Z" fill="#C1C1C1"/>
<path d="M136.929 197.049L136.955 197.089C136.925 197.205 136.881 197.34 136.824 197.493C136.767 197.648 136.708 197.791 136.646 197.924H136.429C136.46 197.803 136.494 197.653 136.531 197.476C136.57 197.298 136.596 197.156 136.612 197.049H136.929Z" fill="#C1C1C1"/>
<path d="M139.043 197.463H137.368V197.214L138.039 196.54C138.244 196.333 138.378 196.185 138.443 196.097C138.509 196.009 138.557 195.923 138.59 195.839C138.622 195.755 138.639 195.665 138.639 195.569C138.639 195.433 138.597 195.325 138.515 195.246C138.432 195.166 138.318 195.126 138.172 195.126C138.066 195.126 137.965 195.144 137.87 195.178C137.776 195.213 137.671 195.277 137.555 195.368L137.401 195.171C137.636 194.976 137.891 194.879 138.168 194.879C138.407 194.879 138.595 194.94 138.731 195.063C138.867 195.185 138.935 195.35 138.935 195.557C138.935 195.718 138.89 195.878 138.799 196.036C138.708 196.194 138.539 196.394 138.29 196.636L137.732 197.181V197.195H139.043V197.463Z" fill="#C1C1C1"/>
<path d="M141.635 196.128H142.501V197.368C142.366 197.411 142.229 197.443 142.09 197.465C141.95 197.487 141.789 197.498 141.605 197.498C141.219 197.498 140.919 197.384 140.704 197.155C140.489 196.925 140.382 196.603 140.382 196.189C140.382 195.924 140.435 195.693 140.54 195.494C140.647 195.294 140.801 195.142 141 195.037C141.2 194.931 141.434 194.879 141.703 194.879C141.975 194.879 142.228 194.929 142.463 195.029L142.348 195.29C142.118 195.192 141.896 195.144 141.684 195.144C141.373 195.144 141.131 195.236 140.957 195.421C140.783 195.605 140.695 195.862 140.695 196.189C140.695 196.533 140.779 196.794 140.946 196.972C141.115 197.15 141.362 197.239 141.687 197.239C141.864 197.239 142.036 197.218 142.205 197.178V196.393H141.635V196.128Z" fill="#C1C1C1"/>
<path d="M143.115 194.915H143.835C144.173 194.915 144.417 194.966 144.568 195.067C144.719 195.168 144.795 195.328 144.795 195.546C144.795 195.697 144.753 195.822 144.668 195.921C144.584 196.019 144.461 196.082 144.3 196.111V196.128C144.687 196.195 144.88 196.398 144.88 196.738C144.88 196.966 144.803 197.144 144.649 197.272C144.495 197.4 144.28 197.463 144.004 197.463H143.115V194.915ZM143.411 196.006H143.899C144.108 196.006 144.259 195.974 144.35 195.909C144.442 195.842 144.488 195.732 144.488 195.576C144.488 195.433 144.437 195.33 144.335 195.267C144.233 195.203 144.07 195.171 143.847 195.171H143.411V196.006ZM143.411 196.257V197.211H143.943C144.148 197.211 144.303 197.171 144.406 197.092C144.511 197.012 144.563 196.887 144.563 196.717C144.563 196.559 144.51 196.443 144.403 196.369C144.297 196.295 144.135 196.257 143.918 196.257H143.411Z" fill="#C1C1C1"/>
<path d="M146.353 194.915L145.403 197.463H145.114L146.064 194.915H146.353Z" fill="#C1C1C1"/>
<path d="M148.239 197.463H146.564V197.214L147.235 196.54C147.44 196.333 147.574 196.185 147.64 196.097C147.705 196.009 147.753 195.923 147.786 195.839C147.818 195.755 147.835 195.665 147.835 195.569C147.835 195.433 147.793 195.325 147.711 195.246C147.628 195.166 147.514 195.126 147.368 195.126C147.262 195.126 147.161 195.144 147.066 195.178C146.972 195.213 146.867 195.277 146.751 195.368L146.597 195.171C146.832 194.976 147.088 194.879 147.364 194.879C147.603 194.879 147.791 194.94 147.927 195.063C148.063 195.185 148.131 195.35 148.131 195.557C148.131 195.718 148.086 195.878 147.995 196.036C147.904 196.194 147.735 196.394 147.486 196.636L146.928 197.181V197.195H148.239V197.463Z" fill="#C1C1C1"/>
<path d="M150.296 196.186C150.296 196.626 150.226 196.955 150.087 197.172C149.948 197.39 149.736 197.498 149.45 197.498C149.176 197.498 148.968 197.387 148.825 197.165C148.682 196.942 148.61 196.616 148.61 196.186C148.61 195.742 148.679 195.413 148.818 195.198C148.956 194.983 149.167 194.875 149.45 194.875C149.727 194.875 149.937 194.987 150.08 195.212C150.224 195.436 150.296 195.761 150.296 196.186ZM148.903 196.186C148.903 196.557 148.947 196.827 149.034 196.996C149.121 197.165 149.26 197.249 149.45 197.249C149.643 197.249 149.783 197.164 149.869 196.993C149.956 196.821 150 196.552 150 196.186C150 195.82 149.956 195.552 149.869 195.382C149.783 195.212 149.643 195.126 149.45 195.126C149.26 195.126 149.121 195.21 149.034 195.379C148.947 195.546 148.903 195.815 148.903 196.186Z" fill="#C1C1C1"/>
<path d="M152.874 196.128H153.74V197.368C153.605 197.411 153.468 197.443 153.329 197.465C153.189 197.487 153.028 197.498 152.844 197.498C152.458 197.498 152.158 197.384 151.943 197.155C151.728 196.925 151.621 196.603 151.621 196.189C151.621 195.924 151.673 195.693 151.779 195.494C151.886 195.294 152.039 195.142 152.239 195.037C152.439 194.931 152.673 194.879 152.942 194.879C153.214 194.879 153.467 194.929 153.702 195.029L153.587 195.29C153.357 195.192 153.135 195.144 152.923 195.144C152.612 195.144 152.37 195.236 152.196 195.421C152.021 195.605 151.934 195.862 151.934 196.189C151.934 196.533 152.018 196.794 152.185 196.972C152.354 197.15 152.601 197.239 152.926 197.239C153.103 197.239 153.275 197.218 153.444 197.178V196.393H152.874V196.128Z" fill="#C1C1C1"/>
<path d="M154.354 194.915H155.073C155.412 194.915 155.656 194.966 155.807 195.067C155.958 195.168 156.034 195.328 156.034 195.546C156.034 195.697 155.991 195.822 155.907 195.921C155.823 196.019 155.7 196.082 155.539 196.111V196.128C155.926 196.195 156.119 196.398 156.119 196.738C156.119 196.966 156.042 197.144 155.887 197.272C155.734 197.4 155.519 197.463 155.242 197.463H154.354V194.915ZM154.65 196.006H155.138C155.347 196.006 155.498 195.974 155.589 195.909C155.681 195.842 155.727 195.732 155.727 195.576C155.727 195.433 155.676 195.33 155.574 195.267C155.471 195.203 155.309 195.171 155.086 195.171H154.65V196.006ZM154.65 196.257V197.211H155.181C155.387 197.211 155.542 197.171 155.645 197.092C155.75 197.012 155.802 196.887 155.802 196.717C155.802 196.559 155.749 196.443 155.642 196.369C155.536 196.295 155.374 196.257 155.157 196.257H154.65Z" fill="#C1C1C1"/>
<path d="M108.787 186.277C108.787 185.511 109.408 184.891 110.173 184.891H122.713C123.478 184.891 124.098 185.511 124.098 186.277V198.816C124.098 199.582 123.478 200.202 122.713 200.202H110.173C109.408 200.202 108.787 199.582 108.787 198.816V186.277Z" fill="#FFAD62"/>
<path fill-rule="evenodd" clip-rule="evenodd" d="M115.161 188.06C115.348 187.874 115.601 187.769 115.865 187.769H118.818C118.887 187.769 118.953 187.796 119.001 187.844L121.216 190.055C121.264 190.103 121.292 190.168 121.292 190.237V194.657C121.292 194.921 121.187 195.174 121 195.36C120.813 195.547 120.559 195.651 120.295 195.651H115.865C115.601 195.651 115.348 195.547 115.161 195.36C114.974 195.174 114.869 194.921 114.869 194.657V188.763C114.869 188.5 114.974 188.247 115.161 188.06ZM115.865 188.285C115.738 188.285 115.616 188.335 115.526 188.425C115.436 188.515 115.385 188.636 115.385 188.763V194.657C115.385 194.784 115.436 194.906 115.526 194.996C115.616 195.085 115.738 195.136 115.865 195.136H120.295C120.422 195.136 120.544 195.085 120.634 194.996C120.724 194.906 120.775 194.784 120.775 194.657V190.344L118.711 188.285H115.865Z" fill="white"/>
<path fill-rule="evenodd" clip-rule="evenodd" d="M118.818 187.768C118.961 187.768 119.077 187.883 119.077 188.026V189.979H121.033C121.176 189.979 121.292 190.095 121.292 190.237C121.292 190.38 121.176 190.495 121.033 190.495H118.818C118.676 190.495 118.56 190.38 118.56 190.237V188.026C118.56 187.883 118.676 187.768 118.818 187.768Z" fill="white"/>
<path fill-rule="evenodd" clip-rule="evenodd" d="M116.345 192.079C116.345 191.936 116.461 191.821 116.603 191.821H119.557C119.699 191.821 119.815 191.936 119.815 192.079C119.815 192.221 119.699 192.337 119.557 192.337H116.603C116.461 192.337 116.345 192.221 116.345 192.079Z" fill="white"/>
<path fill-rule="evenodd" clip-rule="evenodd" d="M116.345 193.551C116.345 193.409 116.461 193.293 116.603 193.293H119.557C119.699 193.293 119.815 193.409 119.815 193.551C119.815 193.694 119.699 193.809 119.557 193.809H116.603C116.461 193.809 116.345 193.694 116.345 193.551Z" fill="white"/>
<path fill-rule="evenodd" clip-rule="evenodd" d="M116.345 190.603C116.345 190.46 116.461 190.345 116.603 190.345H117.34C117.483 190.345 117.598 190.46 117.598 190.603C117.598 190.745 117.483 190.861 117.34 190.861H116.603C116.461 190.861 116.345 190.745 116.345 190.603Z" fill="white"/>
</g>
<g filter="url(#filter6_d)">
<rect x="250.715" y="160.393" width="164.074" height="164.074" rx="6.01747" fill="white"/>
<path fill-rule="evenodd" clip-rule="evenodd" d="M333.212 240.294C308.079 240.396 287.736 260.802 287.736 285.959C287.736 288.234 285.892 290.078 283.618 290.078C281.343 290.078 279.5 288.234 279.5 285.959C279.5 256.19 303.633 232.057 333.402 232.057H333.593L333.783 232.075C364.003 234.886 388.718 259.187 387.304 285.959C387.304 288.234 385.461 290.078 383.186 290.078C380.912 290.078 379.068 288.234 379.068 285.959C379.425 260.957 359.978 242.862 333.212 240.294Z" fill="#E6EDF5"/>
<path fill-rule="evenodd" clip-rule="evenodd" d="M333.193 240.16C307.635 240.272 287.603 260.715 287.603 285.961C287.603 288.16 285.82 289.943 283.621 289.943C281.421 289.943 279.638 288.16 279.638 285.961C279.638 256.286 303.306 232.194 333.405 232.194H333.618L333.83 232.217C344.536 233.368 353.954 236.102 362.122 241.207C370.313 246.327 377.006 253.679 382.48 263.694C383.534 265.625 382.825 268.044 380.895 269.099C378.965 270.154 376.545 269.445 375.49 267.514C370.564 258.501 364.755 252.246 357.901 247.962C351.073 243.695 342.969 241.234 333.193 240.16Z" fill="#FF9737"/>
<path fill-rule="evenodd" clip-rule="evenodd" d="M308.498 247.143C295.376 255.984 287.603 271.881 287.603 285.742C287.603 287.941 285.82 289.724 283.621 289.724C281.421 289.724 279.638 287.941 279.638 285.742C279.638 269.289 288.681 250.89 304.047 240.537C320.35 229.319 344.468 228.434 366.097 243.894C367.945 245.086 368.478 247.551 367.287 249.4C366.095 251.248 363.63 251.781 361.781 250.589C339.626 236.309 321.278 238.532 308.498 247.143Z" fill="#F45552"/>
<path fill-rule="evenodd" clip-rule="evenodd" d="M333.27 240.29C307.514 239.936 288.145 260.82 287.735 286.025C287.698 288.299 285.825 290.113 283.551 290.076C281.277 290.039 279.463 288.165 279.5 285.891C279.975 256.666 303.31 230.864 333.623 232.191C335.896 232.264 337.591 234.033 337.518 236.306C337.445 238.579 335.543 240.363 333.27 240.29Z" fill="#4182FA"/>
<path d="M321.837 266.914H320.512V261.593C320.512 260.957 320.527 260.454 320.558 260.082C320.471 260.172 320.364 260.272 320.236 260.381C320.112 260.49 319.691 260.835 318.974 261.418L318.308 260.578L320.732 258.673H321.837V266.914Z" fill="#5E5E5E"/>
<path d="M330.129 262.793C330.129 264.225 329.898 265.288 329.436 265.984C328.977 266.679 328.274 267.026 327.327 267.026C326.41 267.026 325.715 266.668 325.242 265.95C324.768 265.232 324.531 264.18 324.531 262.793C324.531 261.339 324.761 260.268 325.219 259.58C325.681 258.889 326.384 258.543 327.327 258.543C328.248 258.543 328.945 258.904 329.419 259.625C329.892 260.347 330.129 261.403 330.129 262.793ZM325.873 262.793C325.873 263.917 325.988 264.719 326.217 265.2C326.45 265.681 326.82 265.922 327.327 265.922C327.835 265.922 328.205 265.677 328.438 265.189C328.675 264.7 328.793 263.902 328.793 262.793C328.793 261.688 328.675 260.89 328.438 260.398C328.205 259.902 327.835 259.653 327.327 259.653C326.82 259.653 326.45 259.896 326.217 260.381C325.988 260.865 325.873 261.67 325.873 262.793Z" fill="#5E5E5E"/>
<path d="M332.953 265.702C332.773 266.401 332.442 267.301 331.961 268.402H330.986C331.245 267.387 331.439 266.444 331.566 265.572H332.868L332.953 265.702Z" fill="#5E5E5E"/>
<path d="M337.023 261.767C337.853 261.767 338.511 261.987 338.996 262.427C339.48 262.866 339.723 263.466 339.723 264.225C339.723 265.104 339.447 265.792 338.894 266.288C338.346 266.78 337.564 267.026 336.549 267.026C335.629 267.026 334.905 266.878 334.379 266.581V265.381C334.683 265.553 335.033 265.687 335.428 265.781C335.822 265.875 336.188 265.922 336.527 265.922C337.124 265.922 337.579 265.788 337.891 265.521C338.203 265.255 338.359 264.864 338.359 264.349C338.359 263.364 337.731 262.872 336.476 262.872C336.299 262.872 336.081 262.891 335.822 262.928C335.563 262.962 335.335 263.002 335.14 263.047L334.548 262.697L334.864 258.673H339.148V259.851H336.031L335.845 261.891C335.976 261.869 336.136 261.842 336.324 261.812C336.515 261.782 336.748 261.767 337.023 261.767Z" fill="#5E5E5E"/>
<path d="M344.855 264.757H346.61V267.152C346.323 267.245 346.047 267.311 345.782 267.351C345.518 267.39 345.234 267.409 344.927 267.409C344.205 267.409 343.648 267.196 343.257 266.77C342.865 266.341 342.669 265.738 342.669 264.959C342.669 264.192 342.89 263.591 343.332 263.158C343.773 262.724 344.381 262.506 345.155 262.506C345.653 262.506 346.125 262.602 346.571 262.793L346.297 263.442C345.91 263.264 345.523 263.175 345.136 263.175C344.627 263.175 344.224 263.335 343.929 263.654C343.633 263.974 343.485 264.411 343.485 264.966C343.485 265.549 343.618 265.992 343.883 266.297C344.151 266.599 344.534 266.75 345.035 266.75C345.287 266.75 345.557 266.719 345.844 266.656V265.426H344.855V264.757Z" fill="#5E5E5E"/>
<path d="M347.759 262.575H349.174C349.831 262.575 350.305 262.67 350.597 262.862C350.89 263.053 351.037 263.355 351.037 263.769C351.037 264.047 350.965 264.279 350.822 264.463C350.678 264.648 350.472 264.765 350.202 264.812V264.845C350.537 264.908 350.783 265.033 350.939 265.22C351.098 265.405 351.177 265.656 351.177 265.974C351.177 266.402 351.027 266.738 350.727 266.982C350.429 267.223 350.014 267.344 349.481 267.344H347.759V262.575ZM348.538 264.545H349.289C349.615 264.545 349.853 264.494 350.003 264.392C350.153 264.287 350.228 264.111 350.228 263.863C350.228 263.639 350.147 263.477 349.983 263.377C349.823 263.277 349.566 263.227 349.214 263.227H348.538V264.545ZM348.538 265.178V266.688H349.367C349.693 266.688 349.939 266.626 350.104 266.502C350.272 266.376 350.355 266.178 350.355 265.909C350.355 265.661 350.271 265.477 350.101 265.357C349.931 265.238 349.674 265.178 349.328 265.178H348.538Z" fill="#5E5E5E"/>
<path d="M323.132 284.16H322.664V282.281C322.664 282.056 322.67 281.879 322.68 281.747C322.65 281.779 322.612 281.814 322.567 281.853C322.523 281.891 322.374 282.013 322.121 282.219L321.886 281.922L322.742 281.249H323.132V284.16Z" fill="#5E5E5E"/>
<path d="M325.076 282.343C325.369 282.343 325.601 282.42 325.772 282.575C325.944 282.731 326.029 282.942 326.029 283.211C326.029 283.521 325.932 283.764 325.737 283.939C325.543 284.113 325.267 284.2 324.908 284.2C324.583 284.2 324.328 284.148 324.142 284.043V283.619C324.249 283.68 324.373 283.727 324.512 283.76C324.651 283.793 324.781 283.81 324.9 283.81C325.111 283.81 325.272 283.763 325.382 283.669C325.492 283.574 325.547 283.436 325.547 283.254C325.547 282.907 325.326 282.733 324.882 282.733C324.82 282.733 324.743 282.739 324.651 282.753C324.56 282.765 324.48 282.779 324.411 282.794L324.202 282.671L324.313 281.249H325.826V281.666H324.725L324.659 282.386C324.706 282.378 324.762 282.369 324.829 282.358C324.896 282.348 324.979 282.343 325.076 282.343Z" fill="#5E5E5E"/>
<path d="M327.059 283.732C326.995 283.979 326.878 284.297 326.708 284.686H326.364C326.455 284.328 326.524 283.994 326.569 283.686H327.029L327.059 283.732Z" fill="#5E5E5E"/>
<path d="M328.496 282.343C328.79 282.343 329.022 282.42 329.193 282.575C329.364 282.731 329.45 282.942 329.45 283.211C329.45 283.521 329.352 283.764 329.157 283.939C328.964 284.113 328.687 284.2 328.329 284.2C328.004 284.2 327.748 284.148 327.562 284.043V283.619C327.67 283.68 327.793 283.727 327.933 283.76C328.072 283.793 328.202 283.81 328.321 283.81C328.532 283.81 328.693 283.763 328.803 283.669C328.913 283.574 328.968 283.436 328.968 283.254C328.968 282.907 328.747 282.733 328.303 282.733C328.241 282.733 328.164 282.739 328.072 282.753C327.981 282.765 327.9 282.779 327.831 282.794L327.622 282.671L327.734 281.249H329.247V281.666H328.146L328.08 282.386C328.127 282.378 328.183 282.369 328.249 282.358C328.317 282.348 328.399 282.343 328.496 282.343Z" fill="#5E5E5E"/>
<path d="M331.583 283.153H332.345V284.192C332.22 284.233 332.101 284.262 331.986 284.279C331.871 284.296 331.748 284.304 331.615 284.304C331.301 284.304 331.06 284.212 330.89 284.027C330.72 283.841 330.635 283.579 330.635 283.241C330.635 282.908 330.731 282.648 330.922 282.46C331.114 282.271 331.378 282.177 331.714 282.177C331.93 282.177 332.135 282.218 332.328 282.301L332.209 282.583C332.041 282.506 331.873 282.467 331.705 282.467C331.484 282.467 331.31 282.536 331.181 282.675C331.053 282.814 330.989 283.003 330.989 283.244C330.989 283.497 331.047 283.689 331.162 283.822C331.278 283.953 331.444 284.018 331.661 284.018C331.771 284.018 331.888 284.005 332.012 283.977V283.444H331.583V283.153Z" fill="#5E5E5E"/>
<path d="M332.843 282.206H333.458C333.743 282.206 333.948 282.248 334.075 282.331C334.202 282.414 334.266 282.545 334.266 282.725C334.266 282.845 334.235 282.946 334.173 283.026C334.11 283.106 334.021 283.157 333.904 283.177V283.192C334.049 283.219 334.156 283.273 334.223 283.354C334.292 283.435 334.327 283.544 334.327 283.681C334.327 283.867 334.262 284.013 334.131 284.119C334.002 284.224 333.822 284.276 333.591 284.276H332.843V282.206ZM333.182 283.061H333.507C333.649 283.061 333.752 283.039 333.817 282.995C333.882 282.95 333.915 282.873 333.915 282.766C333.915 282.668 333.879 282.598 333.809 282.555C333.739 282.511 333.628 282.49 333.475 282.49H333.182V283.061ZM333.182 283.336V283.991H333.541C333.683 283.991 333.789 283.965 333.861 283.911C333.934 283.856 333.97 283.77 333.97 283.653C333.97 283.546 333.933 283.466 333.86 283.414C333.786 283.362 333.674 283.336 333.524 283.336H333.182Z" fill="#5E5E5E"/>
<path d="M337.84 281.551V283.373C337.84 283.581 337.796 283.764 337.706 283.92C337.617 284.076 337.488 284.196 337.318 284.28C337.15 284.364 336.949 284.406 336.714 284.406C336.364 284.406 336.093 284.313 335.899 284.128C335.705 283.943 335.608 283.689 335.608 283.366V281.551H336.07V283.333C336.07 283.565 336.124 283.737 336.232 283.847C336.34 283.957 336.506 284.013 336.729 284.013C337.163 284.013 337.38 283.785 337.38 283.329V281.551H337.84Z" fill="#4182FA"/>
<path d="M339.944 283.76C339.944 283.968 339.868 284.128 339.717 284.24C339.565 284.35 339.348 284.406 339.065 284.406C338.782 284.406 338.554 284.363 338.382 284.277V283.886C338.632 284.001 338.865 284.059 339.081 284.059C339.36 284.059 339.499 283.975 339.499 283.807C339.499 283.753 339.483 283.708 339.453 283.672C339.422 283.636 339.371 283.599 339.3 283.56C339.23 283.522 339.132 283.478 339.006 283.429C338.761 283.334 338.594 283.239 338.507 283.144C338.421 283.049 338.378 282.926 338.378 282.774C338.378 282.592 338.451 282.451 338.597 282.35C338.745 282.249 338.945 282.198 339.198 282.198C339.449 282.198 339.686 282.249 339.909 282.35L339.763 282.691C339.533 282.596 339.34 282.549 339.183 282.549C338.944 282.549 338.825 282.617 338.825 282.753C338.825 282.82 338.856 282.876 338.917 282.923C338.98 282.969 339.116 283.032 339.326 283.113C339.501 283.181 339.629 283.244 339.709 283.3C339.788 283.357 339.848 283.422 339.886 283.497C339.925 283.57 339.944 283.658 339.944 283.76Z" fill="#4182FA"/>
<path d="M341.365 284.406C341.034 284.406 340.775 284.309 340.587 284.117C340.401 283.923 340.308 283.656 340.308 283.317C340.308 282.969 340.395 282.696 340.568 282.497C340.741 282.298 340.979 282.198 341.282 282.198C341.564 282.198 341.786 282.284 341.949 282.454C342.112 282.625 342.194 282.86 342.194 283.159V283.404H340.774C340.78 283.611 340.836 283.77 340.942 283.882C341.047 283.992 341.195 284.047 341.386 284.047C341.512 284.047 341.629 284.036 341.737 284.013C341.846 283.988 341.963 283.949 342.088 283.893V284.261C341.977 284.314 341.865 284.351 341.752 284.373C341.639 284.395 341.51 284.406 341.365 284.406ZM341.282 282.541C341.139 282.541 341.023 282.587 340.936 282.678C340.85 282.769 340.798 282.902 340.782 283.077H341.749C341.746 282.901 341.704 282.768 341.621 282.678C341.539 282.587 341.426 282.541 341.282 282.541Z" fill="#4182FA"/>
<path d="M343.426 284.406C343.16 284.406 342.953 284.309 342.804 284.117C342.655 283.924 342.581 283.654 342.581 283.306C342.581 282.957 342.656 282.685 342.806 282.491C342.958 282.296 343.167 282.198 343.434 282.198C343.714 282.198 343.927 282.302 344.073 282.508H344.097C344.075 282.356 344.064 282.235 344.064 282.146V281.37H344.518V284.367H344.164L344.085 284.088H344.064C343.919 284.3 343.706 284.406 343.426 284.406ZM343.548 284.04C343.734 284.04 343.869 283.988 343.954 283.884C344.039 283.778 344.082 283.608 344.085 283.373V283.31C344.085 283.041 344.041 282.851 343.954 282.738C343.867 282.625 343.73 282.568 343.544 282.568C343.385 282.568 343.262 282.633 343.176 282.763C343.09 282.891 343.047 283.075 343.047 283.314C343.047 283.55 343.089 283.73 343.172 283.855C343.255 283.978 343.381 284.04 343.548 284.04Z" fill="#4182FA"/>
<path d="M301.983 201.303C301.983 200.936 301.853 200.653 301.593 200.454C301.337 200.255 300.873 200.054 300.2 199.852C299.527 199.649 298.992 199.424 298.594 199.175C297.833 198.697 297.453 198.074 297.453 197.306C297.453 196.633 297.726 196.079 298.273 195.643C298.823 195.207 299.536 194.989 300.412 194.989C300.993 194.989 301.511 195.096 301.966 195.31C302.421 195.524 302.778 195.83 303.038 196.228C303.298 196.621 303.428 197.059 303.428 197.541H301.983C301.983 197.105 301.845 196.765 301.57 196.52C301.299 196.272 300.909 196.147 300.4 196.147C299.926 196.147 299.557 196.249 299.294 196.451C299.034 196.654 298.904 196.937 298.904 197.3C298.904 197.606 299.045 197.862 299.328 198.068C299.611 198.271 300.077 198.47 300.727 198.665C301.377 198.856 301.899 199.076 302.293 199.324C302.687 199.569 302.975 199.852 303.159 200.173C303.342 200.49 303.434 200.863 303.434 201.291C303.434 201.987 303.166 202.541 302.631 202.954C302.1 203.363 301.377 203.568 300.463 203.568C299.859 203.568 299.303 203.457 298.795 203.235C298.29 203.01 297.896 202.7 297.614 202.306C297.334 201.912 297.195 201.454 297.195 200.93H298.646C298.646 201.404 298.802 201.771 299.116 202.031C299.429 202.291 299.879 202.421 300.463 202.421C300.968 202.421 301.347 202.32 301.599 202.117C301.855 201.91 301.983 201.639 301.983 201.303ZM306.318 195.74V197.248H307.414V198.281H306.318V201.744C306.318 201.981 306.364 202.153 306.456 202.26C306.551 202.363 306.72 202.415 306.961 202.415C307.121 202.415 307.284 202.396 307.448 202.358V203.436C307.131 203.524 306.825 203.568 306.53 203.568C305.46 203.568 304.925 202.977 304.925 201.796V198.281H303.904V197.248H304.925V195.74H306.318ZM308.05 200.293C308.05 199.686 308.17 199.139 308.411 198.653C308.652 198.164 308.99 197.789 309.426 197.529C309.862 197.266 310.363 197.134 310.929 197.134C311.766 197.134 312.444 197.403 312.964 197.942C313.488 198.481 313.771 199.196 313.813 200.087L313.819 200.414C313.819 201.025 313.7 201.572 313.463 202.054C313.23 202.536 312.894 202.908 312.454 203.172C312.018 203.436 311.514 203.568 310.94 203.568C310.065 203.568 309.363 203.277 308.836 202.696C308.312 202.111 308.05 201.333 308.05 200.362V200.293ZM309.443 200.414C309.443 201.052 309.575 201.553 309.839 201.916C310.103 202.276 310.47 202.455 310.94 202.455C311.41 202.455 311.775 202.272 312.035 201.905C312.299 201.538 312.431 201.001 312.431 200.293C312.431 199.666 312.295 199.169 312.024 198.802C311.756 198.435 311.391 198.252 310.929 198.252C310.474 198.252 310.113 198.434 309.845 198.797C309.577 199.156 309.443 199.695 309.443 200.414ZM318.246 198.521C318.062 198.491 317.873 198.476 317.678 198.476C317.04 198.476 316.61 198.72 316.388 199.21V203.453H314.994V197.248H316.325L316.359 197.942C316.696 197.403 317.162 197.134 317.758 197.134C317.957 197.134 318.121 197.161 318.251 197.214L318.246 198.521ZM322.661 203.453C322.6 203.334 322.546 203.141 322.501 202.874C322.057 203.336 321.514 203.568 320.872 203.568C320.249 203.568 319.74 203.39 319.347 203.034C318.953 202.679 318.756 202.239 318.756 201.715C318.756 201.054 319.001 200.548 319.49 200.196C319.983 199.84 320.687 199.663 321.6 199.663H322.455V199.255C322.455 198.934 322.365 198.678 322.185 198.487C322.006 198.292 321.732 198.195 321.365 198.195C321.048 198.195 320.788 198.275 320.585 198.435C320.383 198.592 320.281 198.793 320.281 199.038H318.888C318.888 198.697 319.001 198.38 319.226 198.086C319.452 197.787 319.758 197.554 320.144 197.386C320.534 197.218 320.968 197.134 321.446 197.134C322.172 197.134 322.751 197.317 323.183 197.684C323.615 198.047 323.837 198.56 323.848 199.221V202.019C323.848 202.578 323.927 203.023 324.083 203.356V203.453H322.661ZM321.13 202.449C321.405 202.449 321.663 202.383 321.904 202.249C322.149 202.115 322.332 201.935 322.455 201.71V200.54H321.704C321.187 200.54 320.799 200.63 320.539 200.809C320.28 200.989 320.15 201.243 320.15 201.572C320.15 201.84 320.237 202.054 320.413 202.214C320.593 202.371 320.832 202.449 321.13 202.449ZM325.064 200.305C325.064 199.341 325.289 198.573 325.741 198C326.195 197.422 326.798 197.134 327.547 197.134C328.254 197.134 328.81 197.38 329.216 197.873L329.279 197.248H330.534V203.264C330.534 204.078 330.28 204.72 329.772 205.191C329.267 205.661 328.585 205.896 327.725 205.896C327.27 205.896 326.824 205.8 326.389 205.609C325.957 205.422 325.628 205.175 325.402 204.869L326.062 204.032C326.49 204.541 327.017 204.795 327.644 204.795C328.107 204.795 328.472 204.669 328.74 204.416C329.007 204.168 329.141 203.801 329.141 203.315V202.897C328.74 203.344 328.204 203.568 327.535 203.568C326.809 203.568 326.215 203.279 325.752 202.702C325.293 202.125 325.064 201.326 325.064 200.305ZM326.452 200.425C326.452 201.048 326.578 201.54 326.83 201.899C327.086 202.255 327.44 202.432 327.891 202.432C328.453 202.432 328.87 202.191 329.141 201.71V198.98C328.877 198.51 328.464 198.275 327.902 198.275C327.444 198.275 327.086 198.456 326.83 198.82C326.578 199.183 326.452 199.718 326.452 200.425ZM334.703 203.568C333.82 203.568 333.103 203.291 332.553 202.736C332.006 202.178 331.733 201.436 331.733 200.511V200.339C331.733 199.72 331.851 199.168 332.088 198.682C332.329 198.193 332.666 197.812 333.098 197.541C333.53 197.269 334.011 197.134 334.543 197.134C335.388 197.134 336.039 197.403 336.498 197.942C336.961 198.481 337.192 199.244 337.192 200.23V200.792H333.138C333.18 201.305 333.35 201.71 333.648 202.008C333.95 202.306 334.329 202.455 334.784 202.455C335.422 202.455 335.942 202.197 336.343 201.681L337.095 202.398C336.846 202.769 336.513 203.057 336.097 203.264C335.684 203.466 335.219 203.568 334.703 203.568ZM334.537 198.252C334.155 198.252 333.845 198.386 333.608 198.653C333.375 198.921 333.226 199.294 333.161 199.772H335.816V199.668C335.785 199.202 335.661 198.85 335.443 198.613C335.225 198.372 334.923 198.252 334.537 198.252ZM347.445 195.104V200.683C347.445 201.57 347.16 202.274 346.591 202.794C346.025 203.31 345.27 203.568 344.326 203.568C343.37 203.568 342.611 203.313 342.049 202.805C341.487 202.293 341.206 201.584 341.206 200.678V195.104H342.651V200.689C342.651 201.247 342.793 201.673 343.075 201.968C343.358 202.262 343.775 202.409 344.326 202.409C345.442 202.409 346 201.821 346 200.643V195.104H347.445ZM352.342 201.767C352.342 201.519 352.239 201.329 352.033 201.199C351.83 201.069 351.492 200.955 351.018 200.855C350.544 200.756 350.148 200.63 349.831 200.477C349.135 200.14 348.787 199.653 348.787 199.015C348.787 198.479 349.012 198.032 349.464 197.673C349.915 197.313 350.488 197.134 351.184 197.134C351.926 197.134 352.524 197.317 352.979 197.684C353.437 198.051 353.667 198.527 353.667 199.112H352.273C352.273 198.844 352.174 198.623 351.975 198.447C351.776 198.267 351.513 198.177 351.184 198.177C350.878 198.177 350.628 198.248 350.433 198.39C350.242 198.531 350.146 198.72 350.146 198.957C350.146 199.171 350.236 199.338 350.415 199.456C350.595 199.575 350.958 199.695 351.505 199.817C352.052 199.936 352.48 200.079 352.789 200.247C353.103 200.412 353.334 200.611 353.483 200.844C353.636 201.077 353.713 201.36 353.713 201.693C353.713 202.251 353.481 202.704 353.019 203.052C352.556 203.396 351.95 203.568 351.201 203.568C350.693 203.568 350.24 203.476 349.842 203.292C349.444 203.109 349.135 202.857 348.913 202.536C348.691 202.214 348.58 201.868 348.58 201.498H349.934C349.953 201.826 350.077 202.081 350.307 202.26C350.536 202.436 350.84 202.524 351.218 202.524C351.585 202.524 351.864 202.455 352.055 202.318C352.247 202.176 352.342 201.993 352.342 201.767ZM357.664 203.568C356.781 203.568 356.064 203.291 355.513 202.736C354.967 202.178 354.693 201.436 354.693 200.511V200.339C354.693 199.72 354.812 199.168 355.049 198.682C355.29 198.193 355.626 197.812 356.058 197.541C356.49 197.269 356.972 197.134 357.503 197.134C358.348 197.134 359 197.403 359.459 197.942C359.921 198.481 360.152 199.244 360.152 200.23V200.792H356.098C356.14 201.305 356.31 201.71 356.609 202.008C356.911 202.306 357.289 202.455 357.744 202.455C358.382 202.455 358.902 202.197 359.304 201.681L360.055 202.398C359.806 202.769 359.474 203.057 359.057 203.264C358.644 203.466 358.18 203.568 357.664 203.568ZM357.497 198.252C357.115 198.252 356.805 198.386 356.568 198.653C356.335 198.921 356.186 199.294 356.121 199.772H358.776V199.668C358.746 199.202 358.621 198.85 358.403 198.613C358.186 198.372 357.884 198.252 357.497 198.252ZM360.978 200.305C360.978 199.349 361.2 198.583 361.643 198.005C362.087 197.424 362.681 197.134 363.427 197.134C364.084 197.134 364.616 197.363 365.021 197.822V194.645H366.414V203.453H365.153L365.084 202.811C364.667 203.315 364.111 203.568 363.415 203.568C362.689 203.568 362.1 203.275 361.649 202.69C361.202 202.105 360.978 201.31 360.978 200.305ZM362.372 200.425C362.372 201.056 362.492 201.549 362.733 201.905C362.978 202.256 363.324 202.432 363.771 202.432C364.34 202.432 364.757 202.178 365.021 201.67V199.02C364.765 198.523 364.352 198.275 363.782 198.275C363.331 198.275 362.983 198.455 362.739 198.814C362.494 199.169 362.372 199.707 362.372 200.425Z" fill="#212121"/>
</g>
<defs>
<filter id="filter0_d" x="30.0638" y="146.248" width="287.318" height="219.443" filterUnits="userSpaceOnUse" color-interpolation-filters="sRGB">
<feFlood flood-opacity="0" result="BackgroundImageFix"/>
<feColorMatrix in="SourceAlpha" type="matrix" values="0 0 0 0 0 0 0 0 0 0 0 0 0 0 0 0 0 0 127 0"/>
<feOffset dy="3.77181"/>
<feGaussianBlur stdDeviation="47.1476"/>
<feColorMatrix type="matrix" values="0 0 0 0 0 0 0 0 0 0 0 0 0 0 0 0 0 0 0.05 0"/>
<feBlend mode="normal" in2="BackgroundImageFix" result="effect1_dropShadow"/>
<feBlend mode="normal" in="SourceGraphic" in2="effect1_dropShadow" result="shape"/>
</filter>
<filter id="filter1_d" x="104.61" y="219.28" width="138.225" height="70.3504" filterUnits="userSpaceOnUse" color-interpolation-filters="sRGB">
<feFlood flood-opacity="0" result="BackgroundImageFix"/>
<feColorMatrix in="SourceAlpha" type="matrix" values="0 0 0 0 0 0 0 0 0 0 0 0 0 0 0 0 0 0 127 0"/>
<feOffset dy="2.25704"/>
<feGaussianBlur stdDeviation="9.87454"/>
<feColorMatrix type="matrix" values="0 0 0 0 0 0 0 0 0 0 0 0 0 0 0 0 0 0 0.03 0"/>
<feBlend mode="normal" in2="BackgroundImageFix" result="effect1_dropShadow"/>
<feBlend mode="normal" in="SourceGraphic" in2="effect1_dropShadow" result="shape"/>
</filter>
<filter id="filter2_d" x="85.698" y="0.090652" width="317.02" height="238.921" filterUnits="userSpaceOnUse" color-interpolation-filters="sRGB">
<feFlood flood-opacity="0" result="BackgroundImageFix"/>
<feColorMatrix in="SourceAlpha" type="matrix" values="0 0 0 0 0 0 0 0 0 0 0 0 0 0 0 0 0 0 127 0"/>
<feOffset dy="3.77181"/>
<feGaussianBlur stdDeviation="47.1476"/>
<feColorMatrix type="matrix" values="0 0 0 0 0 0 0 0 0 0 0 0 0 0 0 0 0 0 0.05 0"/>
<feBlend mode="normal" in2="BackgroundImageFix" result="effect1_dropShadow"/>
<feBlend mode="normal" in="SourceGraphic" in2="effect1_dropShadow" result="shape"/>
</filter>
<filter id="filter3_d" x="153.513" y="69.43" width="181.389" height="103.291" filterUnits="userSpaceOnUse" color-interpolation-filters="sRGB">
<feFlood flood-opacity="0" result="BackgroundImageFix"/>
<feColorMatrix in="SourceAlpha" type="matrix" values="0 0 0 0 0 0 0 0 0 0 0 0 0 0 0 0 0 0 127 0"/>
<feOffset dy="5.29604"/>
<feGaussianBlur stdDeviation="13.2401"/>
<feColorMatrix type="matrix" values="0 0 0 0 0 0 0 0 0 0 0 0 0 0 0 0 0 0 0.02 0"/>
<feBlend mode="normal" in2="BackgroundImageFix" result="effect1_dropShadow"/>
<feBlend mode="normal" in="SourceGraphic" in2="effect1_dropShadow" result="shape"/>
</filter>
<filter id="filter4_d" x="0.832207" y="83.0705" width="331.274" height="227.759" filterUnits="userSpaceOnUse" color-interpolation-filters="sRGB">
<feFlood flood-opacity="0" result="BackgroundImageFix"/>
<feColorMatrix in="SourceAlpha" type="matrix" values="0 0 0 0 0 0 0 0 0 0 0 0 0 0 0 0 0 0 127 0"/>
<feOffset dy="3.77181"/>
<feGaussianBlur stdDeviation="47.1476"/>
<feColorMatrix type="matrix" values="0 0 0 0 0 0 0 0 0 0 0 0 0 0 0 0 0 0 0.05 0"/>
<feBlend mode="normal" in2="BackgroundImageFix" result="effect1_dropShadow"/>
<feBlend mode="normal" in="SourceGraphic" in2="effect1_dropShadow" result="shape"/>
</filter>
<filter id="filter5_d" x="70.8846" y="152.122" width="191.169" height="87.6538" filterUnits="userSpaceOnUse" color-interpolation-filters="sRGB">
<feFlood flood-opacity="0" result="BackgroundImageFix"/>
<feColorMatrix in="SourceAlpha" type="matrix" values="0 0 0 0 0 0 0 0 0 0 0 0 0 0 0 0 0 0 127 0"/>
<feOffset dy="2.77062"/>
<feGaussianBlur stdDeviation="12.1215"/>
<feColorMatrix type="matrix" values="0 0 0 0 0 0 0 0 0 0 0 0 0 0 0 0 0 0 0.03 0"/>
<feBlend mode="normal" in2="BackgroundImageFix" result="effect1_dropShadow"/>
<feBlend mode="normal" in="SourceGraphic" in2="effect1_dropShadow" result="shape"/>
</filter>
<filter id="filter6_d" x="156.419" y="69.8691" width="352.664" height="352.664" filterUnits="userSpaceOnUse" color-interpolation-filters="sRGB">
<feFlood flood-opacity="0" result="BackgroundImageFix"/>
<feColorMatrix in="SourceAlpha" type="matrix" values="0 0 0 0 0 0 0 0 0 0 0 0 0 0 0 0 0 0 127 0"/>
<feOffset dy="3.77181"/>
<feGaussianBlur stdDeviation="47.1476"/>
<feColorMatrix type="matrix" values="0 0 0 0 0 0 0 0 0 0 0 0 0 0 0 0 0 0 0.05 0"/>
<feBlend mode="normal" in2="BackgroundImageFix" result="effect1_dropShadow"/>
<feBlend mode="normal" in="SourceGraphic" in2="effect1_dropShadow" result="shape"/>
</filter>
<clipPath id="clip0">
<rect width="14.2331" height="13.2401" fill="white" transform="translate(198.529 109.152)"/>
</clipPath>
</defs>
</svg>
