<svg width="19" height="19" viewBox="0 0 19 19" fill="none" xmlns="http://www.w3.org/2000/svg">
<circle cx="9.3247" cy="9.40704" r="8.80426" fill="#4182FA"/>
<path d="M6.61566 9.27203V7.51118C6.61566 7.43638 6.6763 7.37573 6.75111 7.37573H8.88821C8.96302 7.37573 9.02366 7.43638 9.02366 7.51118V9.40748C9.02366 10.7502 7.99665 11.261 7.13037 11.3981C6.99269 11.4199 6.9311 11.2309 7.03395 11.1369C7.58509 10.6328 7.77831 9.95151 7.81348 9.54259C7.81989 9.46806 7.75902 9.40748 7.68421 9.40748H6.75111C6.6763 9.40748 6.61566 9.34684 6.61566 9.27203Z" fill="white"/>
<path d="M9.62561 9.27094V7.51008C9.62561 7.43528 9.68625 7.37463 9.76106 7.37463H11.8982C11.973 7.37463 12.0336 7.43528 12.0336 7.51008V9.40639C12.0336 10.7491 11.0066 11.2599 10.1403 11.397C10.0026 11.4188 9.94104 11.2298 10.0439 11.1358C10.595 10.6317 10.7883 9.95041 10.8234 9.54149C10.8298 9.46696 10.769 9.40639 10.6942 9.40639H9.76106C9.68625 9.40639 9.62561 9.34574 9.62561 9.27094Z" fill="white"/>
</svg>
